<?xml version="1.0" encoding="utf-8"?>
<!-- Generator: Adobe Illustrator 27.5.0, SVG Export Plug-In . SVG Version: 6.00 Build 0)  -->
<svg version="1.1" xmlns="http://www.w3.org/2000/svg" xmlns:xlink="http://www.w3.org/1999/xlink" x="0px" y="0px"
	 viewBox="0 0 750 500" style="enable-background:new 0 0 750 500;" xml:space="preserve">
<g id="Background_Complete">
	<g>
		<g>
			<polygon style="fill:#E0E0E0;" points="464.833,73.343 476.264,102.587 469.158,102.555 463.462,84.583 			"/>
			<g>
				<g>
					<polygon style="fill:#EBEBEB;" points="425.797,46.322 421.867,102.356 462.436,103.203 467,46.322 					"/>
					<polygon style="fill:#FAFAFA;" points="429.856,50.835 426.584,97.475 456.742,98.887 460.956,50.558 					"/>
				</g>
				<polygon style="fill:#E0E0E0;" points="436.473,57.43 434.027,90.214 450.663,90.214 453.598,57.43 				"/>
			</g>
		</g>
		<g>
			<polygon style="fill:#EBEBEB;" points="385.786,102.707 385.786,74.653 406.33,74.653 406.33,102.685 			"/>
			<path style="fill:#E0E0E0;" d="M397.466,74.653c0,0,4.956-36.221,3.567-36.171c-1.388,0.05-4.875,33.024-4.875,33.024
				s-0.146-27.309-1.452-27.164c-1.308,0.146,0,28.907,0,28.907s-2.233-23.341-3.441-22.783c-1.208,0.558,0.519,24.186,0.519,24.186
				H397.466"/>
			<path style="fill:#EBEBEB;" d="M393.732,74.653c0,0,1.717-18.053,2.283-16.819c0.566,1.234,0,10.747,0,10.747
				s4.757-23.329,6.002-22.536c1.246,0.793-4.87,25.322-4.87,25.322s4.643-14.004,5.662-12.528
				c1.019,1.476-3.851,14.612-3.851,14.612s4.983-9.286,5.323-8.04c0.339,1.246-2.379,9.242-2.379,9.242H393.732z"/>
			<path style="fill:#F5F5F5;" d="M390.805,74.762c0,0-10.986-21.564-9.626-20.896c1.359,0.668,8.38,14.598,8.38,14.598
				s-4.647-13.445-3.626-13.857c1.021-0.412,6.118,15.103,6.118,15.103l1.144,5.052H390.805z"/>
			<polygon style="fill:#E0E0E0;" points="395.296,74.7 395.815,102.754 386.047,102.754 385.859,74.606 			"/>
			<polygon style="fill:#E0E0E0;" points="385.809,77.129 395.27,77.287 406.33,77.129 406.677,74.449 385.541,74.449 			"/>
		</g>
		<rect x="364.99" y="101.925" style="fill:#E0E0E0;" width="143.833" height="7.408"/>
	</g>
	<g>
		<g>
			<g>
				<g>
					<polygon style="fill:#F5F5F5;" points="139.56,226.262 141.635,460.235 48.954,460.235 48.954,229.452 					"/>
				</g>
				<g>
					<polygon style="fill:#E0E0E0;" points="89.63,228.02 90.45,460.235 48.954,460.235 48.954,229.452 					"/>
				</g>
				<g>
					<g>
						<polygon style="fill:#E0E0E0;" points="136.646,229.148 136.646,261.945 92.746,261.945 92.746,230.698 						"/>
					</g>
					<g>
						<g>
							<polygon style="fill:#F5F5F5;" points="121.512,238.17 121.512,243.014 108.081,243.014 108.081,237.73 							"/>
						</g>
						<g>
							<rect x="107.641" y="247.088" style="fill:#F5F5F5;" width="13.871" height="1.982"/>
						</g>
					</g>
				</g>
				<g>
					<g>
						<polygon style="fill:#E0E0E0;" points="136.646,344.074 136.646,376.87 92.746,376.87 92.746,345.624 						"/>
					</g>
					<g>
						<g>
							<polygon style="fill:#F5F5F5;" points="121.512,353.096 121.512,357.941 108.081,357.941 108.081,352.656 							"/>
						</g>
						<g>
							<rect x="107.641" y="362.014" style="fill:#F5F5F5;" width="13.871" height="1.982"/>
						</g>
					</g>
				</g>
				<g>
					<g>
						<polygon style="fill:#E0E0E0;" points="136.646,266.119 136.646,298.915 92.746,298.915 92.746,267.669 						"/>
					</g>
					<g>
						<g>
							<polygon style="fill:#F5F5F5;" points="121.512,275.142 121.512,279.986 108.081,279.986 108.081,274.702 							"/>
						</g>
						<g>
							<rect x="107.641" y="284.059" style="fill:#F5F5F5;" width="13.871" height="1.982"/>
						</g>
					</g>
				</g>
				<g>
					<g>
						<polygon style="fill:#E0E0E0;" points="136.646,381.038 136.646,413.835 92.746,413.835 92.746,382.588 						"/>
					</g>
					<g>
						<polygon style="fill:#F5F5F5;" points="121.512,390.061 121.512,394.904 108.081,394.904 108.081,389.62 						"/>
					</g>
					<g>
						<rect x="107.641" y="398.978" style="fill:#F5F5F5;" width="13.871" height="1.982"/>
					</g>
				</g>
				<g>
					<g>
						<polygon style="fill:#E0E0E0;" points="137.12,418.002 137.12,450.798 93.219,450.798 93.219,419.551 						"/>
					</g>
					<g>
						<polygon style="fill:#F5F5F5;" points="121.985,427.024 121.985,431.868 108.554,431.868 108.554,426.584 						"/>
					</g>
					<g>
						<rect x="108.113" y="435.941" style="fill:#F5F5F5;" width="13.872" height="1.982"/>
					</g>
				</g>
			</g>
			<g>
				<g>
					<g>
						<rect x="93.318" y="305.388" style="fill:#E0E0E0;" width="43.9" height="32.796"/>
					</g>
					<g>
						<polygon style="fill:#F5F5F5;" points="121.788,320.169 121.788,324.723 109.163,324.723 109.163,319.755 						"/>
					</g>
					<g>
						<rect x="108.749" y="328.551" style="fill:#F5F5F5;" width="13.039" height="1.863"/>
					</g>
				</g>
			</g>
		</g>
	</g>
	<g>
		<g>
			<g>
				<polygon style="fill:#F5F5F5;" points="410.14,431.69 410.14,460.277 451.946,460.277 498.056,460.277 498.056,431.69 				"/>
			</g>
			<g>
				<polygon style="fill:#E0E0E0;" points="406.451,423.697 406.451,431.69 501.129,431.69 501.129,423.697 451.946,423.697 				"/>
			</g>
			<g>
				<polygon style="fill:#E0E0E0;" points="453.79,460.277 498.056,460.277 498.056,431.69 501.129,431.69 501.129,423.697 
					451.946,423.697 451.946,430.95 				"/>
			</g>
			<g>
				<rect x="422.436" y="436.3" style="fill:#E0E0E0;" width="17.829" height="4.303"/>
			</g>
			<g>
				<rect x="420.141" y="445.983" style="fill:#FFFFFF;" width="22.893" height="9.087"/>
			</g>
		</g>
	</g>
	<g>
		<g>
			<g>
				<polygon style="fill:#F5F5F5;" points="523.725,395.109 523.725,423.697 565.531,423.697 611.64,423.697 611.64,395.109 				"/>
			</g>
			<g>
				<polygon style="fill:#E0E0E0;" points="520.036,387.117 520.036,395.109 614.714,395.109 614.714,387.117 565.531,387.117 				
					"/>
			</g>
			<g>
				<polygon style="fill:#E0E0E0;" points="567.375,423.697 611.64,423.697 611.64,395.109 614.714,395.109 614.714,387.117 
					565.531,387.117 565.531,394.37 				"/>
			</g>
			<g>
				<rect x="536.021" y="399.72" style="fill:#E0E0E0;" width="17.829" height="4.303"/>
			</g>
			<g>
				<rect x="533.726" y="409.403" style="fill:#FFFFFF;" width="22.893" height="9.087"/>
			</g>
		</g>
	</g>
	<g>
		<g>
			<g>
				<polygon style="fill:#F5F5F5;" points="519.516,431.69 519.516,460.277 561.321,460.277 607.431,460.277 607.431,431.69 				"/>
			</g>
			<g>
				<polygon style="fill:#E0E0E0;" points="515.827,423.697 515.827,431.69 610.505,431.69 610.505,423.697 561.321,423.697 				"/>
			</g>
			<g>
				<polygon style="fill:#E0E0E0;" points="563.166,460.277 607.431,460.277 607.431,431.69 610.505,431.69 610.505,423.697 
					561.321,423.697 561.321,430.95 				"/>
			</g>
			<g>
				<rect x="531.811" y="436.3" style="fill:#E0E0E0;" width="17.829" height="4.303"/>
			</g>
			<g>
				<rect x="529.517" y="445.983" style="fill:#FFFFFF;" width="22.893" height="9.087"/>
			</g>
		</g>
	</g>
	<g>
		<g>
			<g>
				<g>
					<polygon style="fill:#F5F5F5;" points="606.19,226.141 604.115,460.114 696.795,460.114 696.795,229.331 					"/>
				</g>
				<g>
					<polygon style="fill:#E0E0E0;" points="656.12,227.9 655.3,460.114 696.795,460.114 696.795,229.331 					"/>
				</g>
				<g>
					<g>
						<polygon style="fill:#E0E0E0;" points="609.103,229.028 609.103,261.824 653.004,261.824 653.004,230.577 						"/>
					</g>
					<g>
						<g>
							<polygon style="fill:#F5F5F5;" points="624.237,238.049 624.237,242.894 637.669,242.894 637.669,237.609 							"/>
						</g>
						<g>
							<rect x="624.237" y="246.967" style="fill:#F5F5F5;" width="13.871" height="1.982"/>
						</g>
					</g>
				</g>
				<g>
					<g>
						<polygon style="fill:#E0E0E0;" points="609.103,343.953 609.103,376.749 653.004,376.749 653.004,345.503 						"/>
					</g>
					<g>
						<g>
							<polygon style="fill:#F5F5F5;" points="624.237,352.975 624.237,357.82 637.669,357.82 637.669,352.535 							"/>
						</g>
						<g>
							<rect x="624.237" y="361.893" style="fill:#F5F5F5;" width="13.871" height="1.982"/>
						</g>
					</g>
				</g>
				<g>
					<g>
						<polygon style="fill:#E0E0E0;" points="609.103,265.998 609.103,298.795 653.004,298.795 653.004,267.548 						"/>
					</g>
					<g>
						<g>
							<polygon style="fill:#F5F5F5;" points="624.237,275.021 624.237,279.865 637.669,279.865 637.669,274.581 							"/>
						</g>
						<g>
							<rect x="624.237" y="283.939" style="fill:#F5F5F5;" width="13.871" height="1.982"/>
						</g>
					</g>
				</g>
				<g>
					<g>
						<polygon style="fill:#E0E0E0;" points="609.103,380.918 609.103,413.714 653.004,413.714 653.004,382.467 						"/>
					</g>
					<g>
						<polygon style="fill:#F5F5F5;" points="624.237,389.94 624.237,394.784 637.669,394.784 637.669,389.499 						"/>
					</g>
					<g>
						<rect x="624.237" y="398.857" style="fill:#F5F5F5;" width="13.871" height="1.982"/>
					</g>
				</g>
				<g>
					<g>
						<polygon style="fill:#E0E0E0;" points="608.63,417.881 608.63,450.677 652.531,450.677 652.531,419.431 						"/>
					</g>
					<g>
						<polygon style="fill:#F5F5F5;" points="623.764,426.904 623.764,431.747 637.196,431.747 637.196,426.463 						"/>
					</g>
					<g>
						<rect x="623.764" y="435.821" style="fill:#F5F5F5;" width="13.872" height="1.982"/>
					</g>
				</g>
			</g>
			<g>
				<g>
					<g>
						<rect x="608.531" y="305.267" style="fill:#E0E0E0;" width="43.9" height="32.796"/>
					</g>
					<g>
						<polygon style="fill:#F5F5F5;" points="623.962,320.048 623.962,324.602 636.587,324.602 636.587,319.635 						"/>
					</g>
					<g>
						<rect x="623.962" y="328.43" style="fill:#F5F5F5;" width="13.039" height="1.863"/>
					</g>
				</g>
			</g>
		</g>
	</g>
</g>
<g id="Background_Simple" style="display:none;">
	<path style="display:inline;fill:#F5F5F5;" d="M591.651,119.516c28.973,60.091,20.458,134.884-16.941,190.125
		c-37.399,55.241-99.62,91.007-165.047,104.031c-46.704,9.297-96.949,7.404-139.623-13.73
		c-42.674-21.134-76.23-63.652-78.789-111.204c-0.966-17.961,2.843-37.033,14.829-50.445c19.138-21.414,51.811-22.168,80.518-21.284
		s61.358,0.214,80.59-21.116c14.777-16.39,16.953-40.164,24.74-60.812c13.241-35.109,45.184-62.523,81.896-70.283
		c34.099-7.208,71.299,2.755,97.508,25.645c3.643,3.181,6.757,6.918,9.353,10.998C584.501,107.439,590.231,116.57,591.651,119.516z"
		/>
</g>
<g id="Floor">
	<g>
		<path style="fill:#263238;" d="M697.419,460.246c0,0.144-148.298,0.26-331.19,0.26c-182.956,0-331.222-0.117-331.222-0.26
			c0-0.144,148.266-0.26,331.222-0.26C549.121,459.986,697.419,460.103,697.419,460.246z"/>
	</g>
</g>
<g id="Folder">
	<g>
		<g>
			<path style="fill:#E8505B;" d="M232.281,191.398l7.061,120.39c0.251,4.288,3.796,7.641,8.092,7.654l216.694,0.661
				c4.49,0.014,8.141-3.615,8.155-8.105l0.286-93.736c0.014-4.511-3.647-8.17-8.158-8.155l-133.267,0.452
				c-2.153,0.007-4.221-0.84-5.751-2.355l-23.092-22.885c-1.517-1.503-3.563-2.349-5.698-2.355l-56.181-0.171
				C235.735,182.778,232.006,186.719,232.281,191.398z"/>
			<path style="opacity:0.3;" d="M232.281,191.398l7.061,120.39c0.251,4.288,3.796,7.641,8.092,7.654l216.694,0.661
				c4.49,0.014,8.141-3.615,8.155-8.105l0.286-93.736c0.014-4.511-3.647-8.17-8.158-8.155l-133.267,0.452
				c-2.153,0.007-4.221-0.84-5.751-2.355l-23.092-22.885c-1.517-1.503-3.563-2.349-5.698-2.355l-56.181-0.171
				C235.735,182.778,232.006,186.719,232.281,191.398z"/>
		</g>
		<g>
			<g>
				<g>
					
						<rect x="248.968" y="165.778" transform="matrix(0.606 -0.7955 0.7955 0.606 -47.9983 328.6675)" style="fill:#FFFFFF;" width="117.594" height="94.013"/>
					<g>
						<path style="fill:#263238;" d="M306.001,137.527c0,0-0.111,0.161-0.332,0.458c-0.228,0.305-0.556,0.743-0.987,1.318
							c-0.878,1.163-2.168,2.871-3.845,5.093c-3.371,4.448-8.293,10.945-14.535,19.182c-12.493,16.447-30.257,39.833-51.374,67.635
							l-0.044-0.326c22.263,16.949,47.787,36.38,74.795,56.941l0.008,0.006l-0.365,0.049c26.394-34.623,50.924-66.799,71.293-93.518
							l0.041,0.303c-22.502-17.199-41.153-31.455-54.189-41.42c-6.516-4.994-11.627-8.911-15.12-11.588
							c-1.738-1.337-3.07-2.363-3.979-3.062C306.467,137.902,306.001,137.527,306.001,137.527s0.461,0.331,1.359,1.005
							c0.908,0.685,2.24,1.689,3.977,2.998c3.499,2.649,8.62,6.526,15.149,11.469c13.095,9.941,31.831,24.165,54.433,41.324
							l0.172,0.131l-0.131,0.173c-20.35,26.735-44.855,58.929-71.223,93.572l-0.158,0.207l-0.207-0.158l-0.008-0.006
							c-26.996-20.577-52.509-40.023-74.762-56.985l-0.186-0.142l0.142-0.185c21.232-27.793,39.091-51.172,51.651-67.613
							c6.27-8.187,11.215-14.644,14.601-19.065c1.684-2.191,2.979-3.876,3.861-5.023c0.433-0.559,0.763-0.985,0.993-1.281
							C305.886,137.663,306.001,137.527,306.001,137.527z"/>
					</g>
				</g>
			</g>
			
				<rect x="253.052" y="171.757" transform="matrix(0.606 -0.7955 0.7955 0.606 -48.0653 328.6542)" style="fill:#263238;" width="109.333" height="82.177"/>
			<polygon style="fill:#455A64;" points="307.277,282.259 289.784,220.928 329.54,221.477 325.672,198.361 373.53,195.286 			"/>
			<g>
				<g>
					
						<ellipse transform="matrix(0.9908 -0.1352 0.1352 0.9908 -23.76 42.3517)" style="fill:#455A64;" cx="300.009" cy="196.151" rx="8.609" ry="8.609"/>
				</g>
			</g>
		</g>
		<g>
			<g>
				<g>
					
						<rect x="335.451" y="123.397" transform="matrix(0.0411 -0.9992 0.9992 0.0411 179.3396 597.3369)" style="fill:#FFFFFF;" width="130.853" height="163.674"/>
					<g>
						<path style="fill:#263238;" d="M485.334,143.227c0,0-0.268-0.002-0.783-0.019c-0.521-0.018-1.283-0.045-2.285-0.081
							c-2.017-0.077-4.993-0.19-8.867-0.337c-7.752-0.305-19.088-0.75-33.461-1.315c-28.723-1.153-69.579-2.794-118.15-4.744
							l0.242-0.223c-1.593,38.911-3.418,83.523-5.35,130.729l-0.001,0.014l-0.249-0.271c60.544,2.507,116.812,4.837,163.533,6.771
							l-0.225,0.207c1.667-39.4,3.049-72.058,4.015-94.875c0.494-11.417,0.881-20.371,1.145-26.479
							c0.136-3.051,0.241-5.389,0.311-6.974C485.284,144.052,485.334,143.227,485.334,143.227s-0.017,0.795-0.073,2.361
							c-0.059,1.576-0.147,3.902-0.261,6.935c-0.238,6.098-0.587,15.037-1.032,26.436c-0.913,22.852-2.22,55.559-3.797,95.02
							l-0.009,0.216l-0.217-0.009c-46.723-1.909-102.991-4.209-163.537-6.683l-0.26-0.011l0.011-0.26l0.001-0.014
							c1.952-47.205,3.796-91.816,5.405-130.727l0.01-0.233l0.233,0.01c48.628,2.048,89.533,3.771,118.291,4.983
							c14.349,0.617,25.665,1.103,33.404,1.436c3.852,0.171,6.812,0.302,8.819,0.39c0.99,0.047,1.743,0.082,2.258,0.106
							C485.084,143.207,485.334,143.227,485.334,143.227z"/>
					</g>
				</g>
			</g>
			
				<rect x="343.581" y="129.142" transform="matrix(0.0411 -0.9992 0.9992 0.0411 179.2416 597.226)" style="fill:#455A64;" width="114.378" height="152.175"/>
			<polygon style="fill:#263238;" points="322.397,259.243 378.424,190.391 409.493,236.188 432.782,213.347 474.443,265.498 			"/>
			<g>
				<g>
					
						<ellipse transform="matrix(0.2188 -0.9758 0.9758 0.2188 144.4643 546.6993)" style="fill:#263238;" cx="413.672" cy="183.125" rx="11.982" ry="11.982"/>
				</g>
			</g>
		</g>
		<g>
			<polygon style="fill:#EBEBEB;" points="493.25,199.428 271.73,229.928 295.186,392.172 514.893,361.222 			"/>
			<polygon style="fill:#E0E0E0;" points="494.096,179.188 275.141,224.573 309.497,384.863 526.613,339.152 			"/>
			<g>
				<g>
					<polygon style="fill:#FFFFFF;" points="474.764,161.203 263.83,235.418 319.281,389.685 528.35,315.392 					"/>
					<g>
						<path style="fill:#263238;" d="M474.764,161.203c0.577,1.654,21.201,60.75,53.786,154.12l0.069,0.199l-0.199,0.071
							c-58.735,20.886-131.003,46.584-209.053,74.338l-0.245,0.087l-0.088-0.244c-0.127-0.355-0.266-0.74-0.404-1.125
							c-19.735-54.928-38.446-107.008-55.024-153.15l-0.08-0.224l0.224-0.079C388.561,191.43,472.793,161.894,474.764,161.203
							c-1.969,0.695-86.139,30.409-210.857,74.438l0.144-0.302c16.592,46.137,35.319,98.211,55.07,153.134
							c0.139,0.385,0.277,0.771,0.404,1.125l-0.332-0.157c78.061-27.72,150.341-53.387,209.085-74.247l-0.129,0.27
							C495.807,222.008,475.337,162.857,474.764,161.203z"/>
					</g>
				</g>
				<g>
					<path style="fill:#263238;" d="M480.706,309.167c-0.405,0.15-10.538-26.159-22.631-58.755
						c-12.097-32.608-21.573-59.154-21.168-59.304c0.404-0.15,10.536,26.153,22.633,58.761
						C471.633,282.465,481.111,309.017,480.706,309.167z"/>
				</g>
				<g>
					<path style="fill:#263238;" d="M462.692,317.401c-0.405,0.15-10.538-26.159-22.631-58.755
						c-12.097-32.608-21.573-59.154-21.168-59.304c0.404-0.15,10.536,26.153,22.633,58.761
						C453.618,290.699,463.096,317.251,462.692,317.401z"/>
				</g>
				<g>
					<path style="fill:#263238;" d="M406.761,340.828c-0.405,0.15-10.538-26.159-22.631-58.755
						c-12.097-32.607-21.573-59.154-21.168-59.304c0.404-0.15,10.536,26.153,22.633,58.761
						C397.687,314.126,407.165,340.678,406.761,340.828z"/>
				</g>
				<g>
					<path style="fill:#263238;" d="M424.587,333.65c-0.405,0.15-10.538-26.159-22.631-58.755
						c-12.097-32.608-21.573-59.154-21.168-59.304c0.404-0.15,10.536,26.153,22.633,58.761
						C415.514,306.948,424.991,333.5,424.587,333.65z"/>
				</g>
				<g>
					<path style="fill:#263238;" d="M442.413,326.472c-0.405,0.15-10.538-26.159-22.631-58.755
						c-12.097-32.608-21.573-59.154-21.168-59.304c0.404-0.15,10.536,26.153,22.633,58.761
						C433.34,299.769,442.818,326.322,442.413,326.472z"/>
				</g>
				<g>
					<path style="fill:#263238;" d="M386.112,346.77c-0.405,0.15-10.538-26.159-22.631-58.755
						c-12.097-32.608-21.573-59.154-21.168-59.304c0.404-0.15,10.536,26.153,22.633,58.761
						C377.038,320.068,386.516,346.62,386.112,346.77z"/>
				</g>
				<g>
					<path style="fill:#263238;" d="M366.364,354.012c-0.405,0.15-10.538-26.159-22.631-58.755
						c-12.097-32.608-21.573-59.154-21.168-59.304c0.404-0.15,10.536,26.153,22.633,58.761
						C357.29,327.309,366.768,353.862,366.364,354.012z"/>
				</g>
				<g>
					<path style="fill:#263238;" d="M346.616,361.253c-0.405,0.15-10.538-26.159-22.631-58.755
						c-12.097-32.608-21.573-59.154-21.168-59.304c0.404-0.15,10.536,26.153,22.633,58.761
						C337.542,334.551,347.02,361.103,346.616,361.253z"/>
				</g>
			</g>
		</g>
		<path style="fill:#E8505B;" d="M227.851,257.296l17.627,147.592c0.313,2.623,2.534,4.6,5.175,4.608l230.741,0.703
			c2.728,0.008,5.004-2.083,5.227-4.802l12.066-147.501c0.249-3.039-2.146-5.645-5.195-5.654l-260.435-0.794
			C229.919,251.438,227.479,254.179,227.851,257.296z"/>
	</g>
</g>
<g id="Character_2">
	<g>
		<polygon style="fill:#BF7A62;" points="510.161,216.137 502.383,221.707 506.916,244.007 517.14,234.887 		"/>
		<g>
			<path style="fill:#455A64;" d="M511.928,383.859l32.352-15.719l41.501,4.981c2.757,2.056,4.668,5.214,5.209,8.61
				c0.178,1.115,0.187,2.349-0.471,3.267c-0.932,1.301-2.834,1.462-4.388,1.077c-1.554-0.385-3.003-1.183-4.593-1.371
				c-3.087-0.366-5.937,1.609-8.257,3.679c-2.32,2.069-4.631,4.431-7.661,5.123c-2.666,0.608-5.473-0.206-7.896-1.473
				c-2.423-1.267-4.587-2.977-6.952-4.35c-4.393-2.551-9.574-3.905-14.611-3.247c-4.027,0.526-7.804,2.29-11.816,2.926
				C520.332,387.998,514.106,387.288,511.928,383.859"/>
			<g>
				<g>
					<g>
						<path style="fill:#D89377;" d="M589.058,448.049c0,0-26.501-90.35-27.003-93.239c-0.454-2.611,3.677-65.907,5.525-82.332
							l-29.188,0.246c0,0-0.004,0.1-0.012,0.274l-13.873,0.341l6.218,179.701l17.946,1.383l-0.12-59.288
							c11.32,28.589,24.437,60.47,24.437,60.47L589.058,448.049z"/>
					</g>
					<g>
						<g>
							<path style="fill:#BF7A62;" d="M536.717,350.669c0.055,0.008-0.054,0.704-0.121,1.969c-0.073,1.264-0.103,3.099,0.08,5.354
								c0.186,2.253,0.582,4.927,1.308,7.826c0.683,2.913,1.937,5.956,3.164,9.207c2.46,6.487,4.657,12.371,6.22,16.64
								c0.745,2.072,1.36,3.781,1.823,5.066c0.418,1.201,0.632,1.871,0.595,1.885c-0.037,0.014-0.322-0.63-0.805-1.806
								c-0.506-1.268-1.179-2.956-1.995-5.001c-1.661-4.232-3.918-10.093-6.378-16.58c-0.611-1.623-1.207-3.208-1.784-4.741
								c-0.56-1.549-1.001-3.076-1.357-4.544c-0.706-2.939-1.063-5.646-1.199-7.925c-0.132-2.281-0.04-4.134,0.103-5.402
								c0.066-0.635,0.149-1.124,0.218-1.453C536.655,350.836,536.698,350.665,536.717,350.669z"/>
						</g>
					</g>
					<g>
						<path style="fill:#BF7A62;" d="M548.595,416.658c0.032-0.548,0.41-20.105,0.41-20.105s-6.506-18.151-6.674-17.6
							C542.162,379.505,548.595,416.658,548.595,416.658z"/>
					</g>
				</g>
				<g>
					<g>
						<g>
							<g>
								<g>
									<path style="fill:#E8505B;" d="M529.707,452.936l0.049-2.021l19.03,0.382l-0.091,6.663l-1.176,0.054
										c-5.233,0.197-26.621,0.632-30.097-0.49C513.545,456.273,529.707,452.936,529.707,452.936z"/>
								</g>
							</g>
							<g style="opacity:0.3;">
								<g>
									<path style="fill:#FFFFFF;" d="M541.829,457.689c0.298-1.578,1.205-3.033,2.49-3.996c1.285-0.963,2.855-1.455,4.453-1.298
										l-0.091,5.295L541.829,457.689z"/>
								</g>
							</g>
						</g>
						<g>
							<g>
								<path style="opacity:0.3;fill:#FFFFFF;" d="M521.805,454.847c0,0-5.671,1.527-4.984,2.468
									c0.687,0.942,22.318,1.315,31.874,0.645l-0.023-0.424l-25.234-0.221C523.438,457.316,522.907,454.913,521.805,454.847z"/>
							</g>
						</g>
						<g>
							<g>
								<g>
									<path style="fill:#263238;" d="M548.97,457.53c0,0.008-0.112,0.018-0.326,0.03c-0.281,0.012-0.589,0.025-0.937,0.04
										c-0.936,0.024-2.087,0.054-3.446,0.089c-2.91,0.054-6.932,0.076-11.372,0.003c-4.442-0.074-8.461-0.229-11.368-0.379
										c-1.356-0.08-2.506-0.148-3.441-0.203c-0.347-0.026-0.654-0.05-0.935-0.071c-0.214-0.019-0.325-0.033-0.325-0.04
										c0-0.008,0.113-0.01,0.327-0.006c0.281,0.008,0.589,0.018,0.937,0.028c0.936,0.035,2.086,0.078,3.443,0.129
										c2.907,0.109,6.925,0.238,11.365,0.312c4.438,0.073,8.457,0.077,11.367,0.064c1.358-0.006,2.51-0.012,3.446-0.016
										c0.348,0.001,0.656,0.002,0.937,0.003C548.857,457.517,548.969,457.522,548.97,457.53z"/>
								</g>
							</g>
						</g>
						<g>
							<g>
								<g>
									<path style="fill:#263238;" d="M523.438,457.61c-0.07,0.008-0.11-0.816-0.615-1.655c-0.491-0.848-1.192-1.281-1.151-1.339
										c0.015-0.057,0.82,0.314,1.349,1.222C523.559,456.74,523.495,457.625,523.438,457.61z"/>
								</g>
							</g>
						</g>
						<g>
							<g>
								<g>
									<path style="fill:#263238;" d="M529.077,454.871c-0.054,0.033-0.316-0.297-0.585-0.737
										c-0.269-0.44-0.443-0.824-0.389-0.857c0.054-0.033,0.316,0.297,0.585,0.737
										C528.957,454.454,529.131,454.838,529.077,454.871z"/>
								</g>
							</g>
						</g>
						<g>
							<g>
								<g>
									<path style="fill:#263238;" d="M530.625,454.086c-0.043,0.047-0.339-0.158-0.66-0.457
										c-0.321-0.299-0.547-0.579-0.504-0.625c0.043-0.047,0.339,0.158,0.66,0.457C530.442,453.76,530.668,454.04,530.625,454.086
										z"/>
								</g>
							</g>
						</g>
						<g>
							<g>
								<g>
									<path style="fill:#263238;" d="M531.625,452.315c0,0.064-0.444,0.112-0.991,0.109c-0.547-0.003-0.99-0.057-0.989-0.121
										c0-0.063,0.444-0.112,0.991-0.109C531.183,452.198,531.626,452.252,531.625,452.315z"/>
								</g>
							</g>
						</g>
						<g>
							<g>
								<g>
									<path style="fill:#263238;" d="M531.98,451.06c0.02,0.057-0.466,0.266-1.109,0.302c-0.643,0.039-1.15-0.113-1.136-0.172
										c0.012-0.065,0.512-0.02,1.123-0.058C531.469,451.099,531.961,450.996,531.98,451.06z"/>
								</g>
							</g>
						</g>
						<g>
							<g>
								<g>
									<path style="fill:#263238;" d="M528.462,453.207c0.001,0.026-0.467,0.075-1.217-0.029
										c-0.374-0.051-0.816-0.148-1.291-0.308c-0.236-0.089-0.483-0.156-0.737-0.318c-0.119-0.083-0.251-0.198-0.295-0.383
										c-0.047-0.183,0.054-0.387,0.193-0.483c1.174-0.583,2.328,0.092,2.75,0.701c0.233,0.311,0.336,0.612,0.383,0.819
										c0.045,0.209,0.039,0.328,0.026,0.329c-0.043,0.015-0.074-0.481-0.537-1.048c-0.228-0.278-0.576-0.551-1.028-0.694
										c-0.427-0.135-1.039-0.18-1.453,0.074c-0.196,0.14-0.124,0.369,0.089,0.5c0.198,0.133,0.456,0.216,0.679,0.304
										c0.458,0.167,0.885,0.277,1.248,0.348C527.999,453.16,528.464,453.17,528.462,453.207z"/>
								</g>
							</g>
						</g>
						<g>
							<g>
								<g>
									<path style="fill:#263238;" d="M528.146,453.262c-0.018,0.013-0.192-0.301-0.126-0.848
										c0.034-0.268,0.138-0.585,0.348-0.884c0.22-0.266,0.503-0.634,1.024-0.603c0.282,0.041,0.414,0.365,0.366,0.569
										c-0.026,0.213-0.125,0.394-0.216,0.54c-0.186,0.301-0.395,0.544-0.588,0.727c-0.388,0.366-0.692,0.504-0.705,0.481
										c-0.021-0.03,0.246-0.214,0.589-0.594c0.17-0.19,0.356-0.431,0.522-0.722c0.172-0.254,0.294-0.715-0.01-0.775
										c-0.304-0.034-0.621,0.263-0.811,0.503c-0.196,0.26-0.307,0.542-0.358,0.786
										C528.079,452.936,528.187,453.254,528.146,453.262z"/>
								</g>
							</g>
						</g>
						<g>
							<g>
								<g>
									<path style="fill:#263238;" d="M548.673,452.34c-0.005,0.043-0.542-0.061-1.4,0.025c-0.85,0.08-2.036,0.407-3.076,1.206
										c-1.039,0.8-1.66,1.863-1.955,2.664c-0.303,0.807-0.341,1.352-0.383,1.346c-0.014-0.001-0.018-0.137,0.006-0.382
										c0.024-0.245,0.089-0.597,0.224-1.018c0.263-0.836,0.884-1.957,1.968-2.792c1.084-0.833,2.327-1.146,3.203-1.186
										c0.441-0.023,0.799,0.005,1.042,0.045C548.544,452.287,548.675,452.326,548.673,452.34z"/>
								</g>
							</g>
						</g>
						<g>
							<g>
								<g>
									<path style="fill:#263238;" d="M539.476,455.801c0.007,0.06-1.231,0.241-2.77,0.227c-1.54-0.01-2.775-0.21-2.767-0.27
										c0.007-0.066,1.243,0.031,2.769,0.04C538.233,455.812,539.47,455.734,539.476,455.801z"/>
								</g>
							</g>
						</g>
						<g>
							<g>
								<g>
									<path style="fill:#263238;" d="M543.19,455.859c0.045,0.047-0.106,0.26-0.237,0.542c-0.135,0.28-0.205,0.532-0.27,0.527
										c-0.061-0.001-0.092-0.301,0.062-0.625C542.898,455.978,543.149,455.813,543.19,455.859z"/>
								</g>
							</g>
						</g>
						<g>
							<g>
								<g>
									<path style="fill:#263238;" d="M544.619,454.142c0.044,0.045-0.081,0.241-0.281,0.436
										c-0.199,0.195-0.397,0.317-0.441,0.272c-0.044-0.045,0.081-0.24,0.281-0.436
										C544.377,454.219,544.575,454.097,544.619,454.142z"/>
								</g>
							</g>
						</g>
						<g>
							<g>
								<g>
									<path style="fill:#263238;" d="M546.635,453.381c-0.014,0.064-0.266,0.057-0.546,0.151
										c-0.282,0.086-0.483,0.238-0.532,0.194c-0.05-0.036,0.114-0.303,0.462-0.413
										C546.367,453.201,546.655,453.323,546.635,453.381z"/>
								</g>
							</g>
						</g>
						<g>
							<g>
								<g>
									<path style="fill:#263238;" d="M548.067,453.03c0.022,0.06-0.089,0.155-0.247,0.213c-0.158,0.058-0.304,0.057-0.326-0.002
										c-0.022-0.059,0.089-0.155,0.247-0.213C547.899,452.97,548.045,452.971,548.067,453.03z"/>
								</g>
							</g>
						</g>
					</g>
				</g>
				<g>
					<g>
						<g>
							<g>
								<g>
									<path style="fill:#E8505B;" d="M572.99,456.026l-0.858-1.831l17.202-8.148l2.891,6.004l-1.028,0.573
										c-4.596,2.51-23.544,12.441-27.155,12.988C560.015,466.222,572.99,456.026,572.99,456.026z"/>
								</g>
							</g>
							<g style="opacity:0.3;">
								<g>
									<path style="fill:#FFFFFF;" d="M585.959,454.872c-0.437-1.545-0.275-3.252,0.445-4.687
										c0.721-1.435,1.906-2.576,3.406-3.148l2.281,4.779L585.959,454.872z"/>
								</g>
							</g>
						</g>
						<g>
							<g>
								<path style="opacity:0.3;fill:#FFFFFF;" d="M566.771,461.261c0,0-4.394,3.896-3.359,4.432
									c1.035,0.536,20.561-8.779,28.814-13.642l-0.21-0.369l-22.683,11.06C569.333,462.742,567.787,460.828,566.771,461.261z"/>
							</g>
						</g>
						<g>
							<g>
								<g>
									<path style="fill:#263238;" d="M592.28,451.544c0.004,0.007-0.092,0.066-0.279,0.172c-0.246,0.136-0.516,0.285-0.82,0.454
										c-0.827,0.439-1.844,0.979-3.044,1.617c-2.58,1.347-6.17,3.16-10.176,5.076c-4.009,1.915-7.675,3.57-10.343,4.732
										c-1.25,0.534-2.308,0.986-3.17,1.354c-0.322,0.131-0.607,0.247-0.868,0.353c-0.199,0.079-0.306,0.116-0.309,0.109
										c-0.003-0.007,0.097-0.059,0.291-0.151c0.255-0.118,0.535-0.247,0.851-0.393c0.853-0.386,1.902-0.86,3.139-1.42
										c2.651-1.199,6.304-2.877,10.31-4.791c4.004-1.915,7.603-3.704,10.201-5.014c1.213-0.612,2.241-1.13,3.077-1.551
										c0.312-0.154,0.588-0.291,0.84-0.415C592.173,451.582,592.276,451.537,592.28,451.544z"/>
								</g>
							</g>
						</g>
						<g>
							<g>
								<g>
									<path style="fill:#263238;" d="M569.465,463.006c-0.059,0.038-0.462-0.681-1.288-1.207
										c-0.817-0.54-1.638-0.615-1.627-0.685c-0.012-0.057,0.874-0.085,1.752,0.492
										C569.185,462.173,569.522,462.994,569.465,463.006z"/>
								</g>
							</g>
						</g>
						<g>
							<g>
								<g>
									<path style="fill:#263238;" d="M573.289,458.038c-0.034,0.054-0.415-0.125-0.852-0.399c-0.437-0.274-0.764-0.54-0.73-0.593
										c0.034-0.054,0.415,0.125,0.852,0.399C572.996,457.719,573.323,457.985,573.289,458.038z"/>
								</g>
							</g>
						</g>
						<g>
							<g>
								<g>
									<path style="fill:#263238;" d="M574.325,456.646c-0.018,0.061-0.374,0.009-0.795-0.115
										c-0.421-0.124-0.748-0.274-0.73-0.335c0.018-0.061,0.374-0.01,0.795,0.115
										C574.016,456.435,574.343,456.585,574.325,456.646z"/>
								</g>
							</g>
						</g>
						<g>
							<g>
								<g>
									<path style="fill:#263238;" d="M574.43,454.614c0.028,0.057-0.347,0.299-0.838,0.539c-0.491,0.241-0.911,0.39-0.939,0.333
										c-0.028-0.057,0.347-0.298,0.838-0.539C573.982,454.706,574.402,454.557,574.43,454.614z"/>
								</g>
							</g>
						</g>
						<g>
							<g>
								<g>
									<path style="fill:#263238;" d="M574.188,453.332c0.044,0.042-0.298,0.446-0.858,0.765
										c-0.558,0.322-1.079,0.412-1.093,0.353c-0.019-0.064,0.449-0.246,0.979-0.553
										C573.748,453.595,574.142,453.284,574.188,453.332z"/>
								</g>
							</g>
						</g>
						<g>
							<g>
								<g>
									<path style="fill:#263238;" d="M571.997,456.823c0.013,0.022-0.385,0.275-1.102,0.517c-0.358,0.121-0.797,0.232-1.293,0.3
										c-0.251,0.026-0.502,0.076-0.801,0.044c-0.143-0.021-0.313-0.065-0.435-0.212c-0.124-0.143-0.124-0.37-0.043-0.519
										c0.791-1.045,2.125-0.956,2.773-0.599c0.347,0.175,0.574,0.398,0.708,0.562c0.134,0.167,0.182,0.276,0.17,0.283
										c-0.032,0.033-0.281-0.397-0.948-0.699c-0.328-0.147-0.762-0.236-1.23-0.162c-0.443,0.07-1.01,0.303-1.267,0.714
										c-0.113,0.212,0.053,0.385,0.302,0.408c0.236,0.031,0.504-0.01,0.744-0.031c0.484-0.055,0.916-0.147,1.272-0.245
										C571.562,456.988,571.982,456.789,571.997,456.823z"/>
								</g>
							</g>
						</g>
						<g>
							<g>
								<g>
									<path style="fill:#263238;" d="M571.739,457.014c-0.01,0.019-0.306-0.184-0.491-0.703
										c-0.089-0.255-0.137-0.586-0.083-0.946c0.078-0.336,0.167-0.792,0.648-0.997c0.27-0.089,0.533,0.142,0.581,0.346
										c0.072,0.202,0.064,0.409,0.047,0.58c-0.032,0.352-0.111,0.663-0.202,0.912c-0.184,0.501-0.395,0.76-0.417,0.745
										c-0.032-0.018,0.125-0.302,0.262-0.794c0.068-0.246,0.126-0.545,0.146-0.879c0.04-0.304-0.056-0.771-0.355-0.689
										c-0.288,0.105-0.438,0.512-0.501,0.812c-0.059,0.32-0.033,0.622,0.03,0.863
										C571.533,456.752,571.771,456.988,571.739,457.014z"/>
								</g>
							</g>
						</g>
						<g>
							<g>
								<g>
									<path style="fill:#263238;" d="M589.698,447.031c0.015,0.04-0.512,0.187-1.242,0.647c-0.725,0.45-1.64,1.273-2.215,2.451
										c-0.573,1.18-0.655,2.408-0.561,3.256c0.089,0.858,0.298,1.362,0.258,1.376c-0.013,0.005-0.078-0.115-0.165-0.345
										c-0.088-0.23-0.187-0.574-0.254-1.011c-0.138-0.866-0.082-2.146,0.516-3.377c0.599-1.229,1.571-2.064,2.337-2.49
										c0.385-0.218,0.717-0.352,0.952-0.425C589.56,447.041,589.694,447.018,589.698,447.031z"/>
								</g>
							</g>
						</g>
						<g>
							<g>
								<g>
									<path style="fill:#263238;" d="M583.012,454.231c0.033,0.05-0.994,0.765-2.378,1.439c-1.383,0.678-2.577,1.05-2.597,0.993
										c-0.023-0.063,1.126-0.527,2.496-1.199C581.904,454.796,582.977,454.174,583.012,454.231z"/>
								</g>
							</g>
						</g>
						<g>
							<g>
								<g>
									<path style="fill:#263238;" d="M586.361,452.627c0.062,0.022,0.021,0.28,0.03,0.591c0.004,0.311,0.054,0.567-0.007,0.592
										c-0.055,0.026-0.217-0.228-0.223-0.587C586.153,452.864,586.305,452.603,586.361,452.627z"/>
								</g>
							</g>
						</g>
						<g>
							<g>
								<g>
									<path style="fill:#263238;" d="M586.874,450.453c0.06,0.021,0.034,0.251-0.057,0.515c-0.091,0.264-0.214,0.461-0.274,0.44
										c-0.06-0.021-0.034-0.251,0.057-0.515C586.692,450.629,586.814,450.432,586.874,450.453z"/>
								</g>
							</g>
						</g>
						<g>
							<g>
								<g>
									<path style="fill:#263238;" d="M588.339,448.872c0.016,0.064-0.213,0.17-0.421,0.378c-0.214,0.203-0.326,0.428-0.39,0.411
										c-0.061-0.009-0.033-0.322,0.229-0.576C588.018,448.83,588.331,448.811,588.339,448.872z"/>
								</g>
							</g>
						</g>
						<g>
							<g>
								<g>
									<path style="fill:#263238;" d="M589.464,447.919c0.046,0.044-0.01,0.178-0.126,0.301c-0.116,0.123-0.247,0.187-0.293,0.144
										c-0.046-0.043,0.01-0.178,0.126-0.301C589.287,447.94,589.418,447.876,589.464,447.919z"/>
								</g>
							</g>
						</g>
					</g>
				</g>
			</g>
			<g>
				<g>
					<g>
						<path style="fill:#263238;" d="M566.8,267.385l0.009-0.002c-7.984-13.805-10.003-12.191-7.298-20.232l7.794-26.145
							l-3.278-16.41c-4.018-3.871-9.071-5.355-13.818-5.053l-16.281,1.12c0,0-8.012-1.756-19.813,9.71l-8.174,7.628l10.295,19.534
							l0.514,8.856l7.425,24.235l-1.979,10.685c-0.86,8.133-11.797,101.375-10.314,102.848c1.549,1.539,24.34-9.871,29.86-5.209
							c5.52,4.661,16.632,7.519,22.901,5.512c6.268-2.006,15.67-14.485,25.157-6.072C589.797,378.388,586.695,295.664,566.8,267.385
							z"/>
					</g>
				</g>
				<path style="fill:#263238;" d="M557.839,200.666c0,0,16.958,4.516,14.454,16.626c-1.231,5.956-9.36,18.378-9.36,18.378
					l-19.22-9.093L557.839,200.666z"/>
				<g>
					<path style="fill:#FAFAFA;" d="M523.253,275.594c0,0,0.904-0.885,2.868-2.029c1.932-1.114,5.111-2.525,9.232-2.276
						c2.016,0.135,4.305,0.578,6.356,1.891c2.045,1.261,3.934,3.206,4.964,5.75c0.512,1.263,0.791,2.675,0.701,4.113
						c-0.082,1.442-0.552,2.864-1.254,4.162c-1.373,2.628-3.529,4.812-4.957,7.493c-1.51,2.666-1.563,5.751-1.349,8.613
						c0.177,2.87,0.622,5.734-0.022,8.412c-0.291,1.326-0.768,2.584-1.46,3.682c-0.682,1.095-1.586,2.05-2.694,2.608
						c-1.096,0.567-2.329,0.753-3.456,0.587c-1.132-0.163-2.14-0.615-3.015-1.146c-1.766-1.071-2.979-2.498-4.13-3.591
						c-1.149-1.113-2.191-2.016-3.078-2.707c-0.888-0.69-1.625-1.162-2.137-1.459c-0.511-0.3-0.798-0.423-0.788-0.448
						c0.003-0.008,0.078,0.017,0.22,0.073c0.143,0.054,0.352,0.145,0.618,0.282c0.533,0.269,1.295,0.718,2.209,1.389
						c0.913,0.672,1.982,1.559,3.157,2.657c1.184,1.089,2.397,2.472,4.12,3.487c0.852,0.503,1.82,0.921,2.879,1.063
						c1.055,0.145,2.191-0.04,3.201-0.571c1.02-0.521,1.863-1.42,2.506-2.467c0.652-1.048,1.106-2.262,1.38-3.543
						c0.609-2.571,0.17-5.375-0.019-8.274c-0.098-1.454-0.159-2.954,0.018-4.473c0.167-1.514,0.62-3.049,1.38-4.42
						c1.483-2.769,3.639-4.947,4.966-7.487c0.682-1.253,1.127-2.6,1.209-3.955c0.09-1.355-0.167-2.693-0.65-3.902
						c-0.969-2.435-2.78-4.33-4.747-5.562c-1.966-1.283-4.171-1.732-6.152-1.891c-4.021-0.29-7.163,1.035-9.109,2.086
						c-0.99,0.532-1.717,1.022-2.209,1.352c-0.223,0.153-0.406,0.279-0.557,0.383C523.326,275.561,523.258,275.601,523.253,275.594z
						"/>
				</g>
				<g>
					<path style="fill:#FAFAFA;" d="M587.802,353.134c0.001,0.009-0.088,0.03-0.263,0.063c-0.205,0.035-0.461,0.079-0.779,0.133
						c-0.686,0.11-1.698,0.266-3.005,0.444c-2.612,0.332-6.415,0.871-11.154,0.754c-2.363-0.073-4.965-0.328-7.67-1.036
						c-2.698-0.695-5.517-1.82-8.118-3.61c-2.577-1.781-4.988-4.258-6.355-7.445c-1.37-3.146-1.84-6.886-0.854-10.438
						c0.506-1.766,1.416-3.389,2.592-4.736c1.191-1.334,2.576-2.405,3.895-3.462c1.323-1.053,2.591-2.123,3.589-3.374
						c0.99-1.254,1.63-2.709,1.94-4.21c0.643-3.01,0.344-6.002,0.48-8.779c0.076-2.78,0.684-5.427,1.932-7.475
						c1.171-2.089,2.751-3.629,4.26-4.753c1.523-1.123,3.026-1.801,4.289-2.2c1.264-0.411,2.293-0.543,2.985-0.603
						c0.323-0.011,0.583-0.021,0.792-0.028c0.178-0.003,0.269-0.001,0.269,0.008c0.016,0.095-1.495-0.043-3.982,0.816
						c-1.235,0.422-2.701,1.117-4.18,2.241c-1.464,1.125-2.993,2.652-4.113,4.701c-1.196,2.014-1.761,4.56-1.821,7.31
						c-0.12,2.746,0.206,5.744-0.443,8.866c-0.313,1.553-0.984,3.098-2.018,4.414c-1.038,1.309-2.337,2.405-3.661,3.465
						c-1.322,1.063-2.681,2.121-3.826,3.408c-1.125,1.294-1.992,2.839-2.479,4.537c-0.948,3.41-0.501,7.038,0.821,10.09
						c1.314,3.086,3.646,5.5,6.161,7.255c2.536,1.761,5.3,2.884,7.955,3.587c2.66,0.716,5.229,0.99,7.573,1.086
						c4.698,0.164,8.5-0.317,11.116-0.587c1.279-0.147,2.287-0.263,3.016-0.347c0.32-0.033,0.579-0.06,0.786-0.082
						C587.71,353.129,587.801,353.125,587.802,353.134z"/>
				</g>
				<g>
					<path style="fill:#FAFAFA;" d="M540.134,378.134c-0.009-0.014,0.104-0.109,0.341-0.257c0.223-0.158,0.63-0.319,0.966-0.672
						c0.353-0.355,0.206-1.029-0.015-1.714c-0.23-0.694-0.636-1.432-1.095-2.254c-0.914-1.644-1.98-3.612-3.302-5.705
						c-1.33-2.082-2.925-4.307-4.999-6.252c-2.062-1.949-4.399-3.414-6.726-4.183c-2.325-0.771-4.591-0.936-6.407-0.604
						c-1.832,0.312-3.164,1.093-3.994,1.709c-0.831,0.628-1.221,1.067-1.258,1.031c-0.013-0.012,0.076-0.128,0.258-0.339
						c0.177-0.216,0.471-0.505,0.875-0.851c0.807-0.678,2.158-1.54,4.051-1.911c1.879-0.391,4.219-0.261,6.625,0.51
						c2.412,0.769,4.825,2.267,6.932,4.26c2.121,1.99,3.729,4.261,5.049,6.377c1.312,2.128,2.348,4.12,3.22,5.786
						c0.436,0.83,0.834,1.603,1.048,2.34c0.108,0.369,0.177,0.716,0.194,1.054c0.026,0.341-0.099,0.685-0.307,0.884
						c-0.421,0.388-0.824,0.494-1.065,0.628C540.275,378.086,540.145,378.151,540.134,378.134z"/>
				</g>
				<g>
					<path style="fill:#FAFAFA;" d="M562.019,260.565c0.019,0.018-0.121,0.232-0.481,0.516c-0.357,0.283-0.955,0.612-1.766,0.78
						c-0.806,0.161-1.828,0.146-2.863-0.24c-1.037-0.383-2.02-1.162-2.756-2.181c-1.501-2.078-1.611-4.501-1.463-6.069
						c0.162-1.607,0.506-2.546,0.56-2.532c0.085,0.017-0.129,0.985-0.193,2.555c-0.051,1.541,0.122,3.814,1.518,5.742
						c0.684,0.946,1.578,1.669,2.508,2.039c0.932,0.375,1.872,0.429,2.627,0.324C561.254,261.274,561.964,260.477,562.019,260.565z"
						/>
				</g>
				<g>
					<path style="fill:#FAFAFA;" d="M563.451,231.798c0.002,0.018-0.13,0.047-0.388,0.088c-0.257,0.037-0.643,0.06-1.139,0.035
						c-0.98-0.067-2.453-0.391-3.907-1.466c-0.709-0.543-1.421-1.26-1.931-2.196c-0.525-0.924-0.845-2.046-0.899-3.238
						c-0.044-1.189,0.166-2.466,0.748-3.639c0.568-1.2,1.562-2.137,2.423-3.119c0.43-0.496,0.822-1.007,1.086-1.559
						c0.253-0.553,0.374-1.148,0.287-1.725c-0.165-1.168-0.928-2.161-1.463-3.203c-0.581-1.04-0.802-2.243-0.661-3.301
						c0.128-1.065,0.558-2.005,1.13-2.71c1.176-1.429,2.728-1.827,3.695-1.885c0.499-0.03,0.885,0.018,1.141,0.068
						c0.255,0.055,0.384,0.102,0.38,0.118c-0.007,0.052-0.545-0.096-1.502,0.016c-0.926,0.114-2.376,0.559-3.425,1.911
						c-1.032,1.305-1.491,3.597-0.333,5.559c0.515,0.997,1.331,1.996,1.544,3.359c0.106,0.674-0.036,1.387-0.324,2.013
						c-0.297,0.625-0.72,1.17-1.163,1.681c-0.894,1.015-1.836,1.905-2.358,3.003c-0.548,1.086-0.754,2.28-0.727,3.396
						c0.051,2.27,1.227,4.129,2.575,5.16c1.354,1.06,2.755,1.43,3.702,1.556C562.904,231.829,563.447,231.748,563.451,231.798z"/>
				</g>
				<g>
					<path style="fill:#FAFAFA;" d="M517.559,241.425c0.01-0.058,0.576,0.136,1.611,0.077c1.009-0.057,2.566-0.396,3.93-1.634
						c1.373-1.178,2.254-3.477,1.651-5.821c-0.28-1.172-0.969-2.245-1.968-3.119c-0.96-0.9-2.181-1.718-2.945-3.044
						c-0.744-1.331-0.837-2.863-0.669-4.213c0.149-1.367,0.467-2.638,0.68-3.849c0.217-1.209,0.341-2.37,0.208-3.433
						c-0.123-1.063-0.505-2.003-1.085-2.707c-1.153-1.429-2.658-1.985-3.657-2.129c-1.023-0.159-1.603,0-1.609-0.059
						c-0.003-0.018,0.137-0.055,0.412-0.111c0.275-0.044,0.69-0.083,1.223-0.031c1.045,0.089,2.648,0.605,3.917,2.098
						c0.638,0.734,1.08,1.756,1.227,2.883c0.16,1.129,0.044,2.342-0.164,3.572c-0.205,1.233-0.509,2.5-0.645,3.819
						c-0.155,1.311-0.052,2.707,0.614,3.902c0.676,1.189,1.845,1.995,2.84,2.928c1.033,0.906,1.809,2.121,2.087,3.379
						c0.625,2.527-0.375,4.992-1.872,6.212c-1.483,1.276-3.125,1.565-4.169,1.561c-0.534,0.003-0.943-0.076-1.215-0.139
						C517.692,241.49,517.555,241.442,517.559,241.425z"/>
				</g>
			</g>
			<g>
				<g>
					<path style="fill:#455A64;" d="M542.208,150.496c3.399-0.678,7.075,0.181,9.822,2.295c2.747,2.114,4.519,5.446,4.736,8.906
						c0.12,1.918-0.118,4.118,1.237,5.48c0.954,0.959,2.413,1.167,3.604,1.81c2.254,1.217,3.361,4.207,2.442,6.599
						c-0.46,1.198-1.34,2.2-1.789,3.403c-0.661,1.772-1.207,3.799-0.674,5.613c2.786,9.493-3.945,10.662-7.534,11.295
						c-5.057,0.892-10.188-0.715-10.713-6.012c-0.17-1.71-3.214-1.516-4.919-1.295c-2.055,0.267-3.574,1.959-5.075,3.389
						c-2.332,2.222-5.135,4.071-8.293,4.703s-6.7-0.111-8.943-2.422c-2.244-2.311-2.793-6.278-0.814-8.819
						c-2.397-1.086-4.248-3.309-4.884-5.862c-0.635-2.554-0.041-5.385,1.568-7.467c1.229-1.591,3.01-2.77,3.889-4.578
						c0.743-1.529,1.539-5.019,2.12-6.616c0.824-2.268,3.626-6.162,5.795-7.219"/>
					<g>
						<g>
							<g>
								<g>
									<g>
										<g>
											<path style="fill:#D89377;" d="M551.203,202.38l-18.779,0.267c-0.321-2.165-0.958-10.599-0.958-10.599
												s-7.869-0.476-8.695-8.22c-0.826-7.745-1.158-25.676-1.158-25.676l0,0c8.612-4.703,19.095-4.376,27.398,0.854
												l1.232,0.776L551.203,202.38z"/>
										</g>
									</g>
									<g>
										<g>
											<g>
												<path style="fill:#263238;" d="M530.841,178.778c0-0.084-0.674-0.156-1.761-0.203c-0.282-0.004-0.507-0.047-0.542-0.195
													c-0.066-0.164,0.014-0.473,0.125-0.819c0.208-0.732,0.419-1.473,0.64-2.249c0.876-3.201,1.453-5.832,1.291-5.876
													c-0.162-0.045-1.004,2.514-1.88,5.715c-0.205,0.781-0.401,1.526-0.594,2.262c-0.072,0.333-0.231,0.728-0.043,1.175
													c0.099,0.224,0.334,0.37,0.523,0.401c0.19,0.039,0.348,0.024,0.483,0.017
													C530.17,178.943,530.842,178.862,530.841,178.778z"/>
											</g>
										</g>
									</g>
									<g>
										<g>
											<path style="fill:#BF7A62;" d="M531.442,191.937c0,0,4.938-0.063,9.838-3.825c0,0-1.864,5.805-9.667,5.835
												L531.442,191.937z"/>
										</g>
									</g>
								</g>
							</g>
						</g>
					</g>
					<g>
						<g>
							<path style="fill:#263238;" d="M536.678,170.683c0.008,0.519-0.425,0.954-0.967,0.972c-0.541,0.018-0.987-0.387-0.995-0.906
								c-0.008-0.519,0.425-0.954,0.966-0.973C536.224,169.758,536.67,170.164,536.678,170.683z"/>
						</g>
						<g>
							<g>
								<path style="fill:#263238;" d="M538.293,169.615c-0.124,0.126-0.858-0.44-1.915-0.459c-1.056-0.034-1.843,0.495-1.955,0.363
									c-0.055-0.058,0.074-0.287,0.416-0.526c0.337-0.238,0.909-0.465,1.568-0.449c0.659,0.017,1.208,0.271,1.521,0.525
									C538.249,169.325,538.354,169.559,538.293,169.615z"/>
							</g>
						</g>
					</g>
					<g>
						<g>
							<path style="fill:#263238;" d="M525.852,170.651c0.008,0.519-0.425,0.954-0.967,0.972c-0.541,0.018-0.987-0.387-0.995-0.906
								c-0.008-0.519,0.425-0.955,0.966-0.973C525.398,169.726,525.844,170.132,525.852,170.651z"/>
						</g>
						<g>
							<g>
								<path style="fill:#263238;" d="M527.255,169.777c-0.125,0.126-0.859-0.44-1.915-0.459c-1.056-0.034-1.843,0.495-1.955,0.363
									c-0.055-0.058,0.073-0.287,0.417-0.526c0.337-0.238,0.909-0.465,1.568-0.449c0.659,0.017,1.208,0.271,1.521,0.525
									C527.209,169.487,527.315,169.721,527.255,169.777z"/>
							</g>
						</g>
					</g>
					<path style="fill:#BF7A62;" d="M532.62,181.505c-0.091-0.254-0.183-0.517-0.169-0.787c0.014-0.27,0.162-0.551,0.418-0.639
						c0.184-0.063,0.401-0.021,0.564-0.127c0.222-0.144,0.219-0.466,0.342-0.701c0.168-0.318,0.58-0.448,0.932-0.377
						c0.352,0.071,0.652,0.301,0.905,0.557c0.291,0.294,0.552,0.66,0.557,1.074c0.005,0.407-0.249,0.786-0.583,1.018
						c-0.335,0.232-0.741,0.337-1.144,0.397c-0.436,0.065-0.879,0.083-1.319,0.053c-0.127-0.009-0.258-0.022-0.369-0.084
						c-0.111-0.061-0.2-0.182-0.185-0.309"/>
					<g>
						<path style="fill:#BF7A62;" d="M531.853,181.659c1.749-0.179,3.356-1.378,4.025-3.004"/>
						<g>
							<path style="fill:#263238;" d="M535.878,178.656c0.137,0.019-0.188,1.321-1.452,2.253c-1.254,0.946-2.594,0.887-2.573,0.751
								c-0.018-0.152,1.152-0.321,2.262-1.168C535.242,179.669,535.737,178.595,535.878,178.656z"/>
						</g>
					</g>
					<g>
						<path style="fill:#BF7A62;" d="M523.422,166.916c0.894-0.425,1.932-0.54,2.898-0.322"/>
						<g>
							<path style="fill:#263238;" d="M526.32,166.593c-0.078,0.282-0.708,0.352-1.418,0.438c-0.712,0.072-1.342,0.143-1.48-0.115
								c-0.141-0.245,0.433-0.817,1.365-0.92C525.718,165.891,526.404,166.324,526.32,166.593z"/>
						</g>
					</g>
					<g>
						<path style="fill:#BF7A62;" d="M534.315,166.992c1.324-0.456,2.825-0.374,4.091,0.224"/>
						<g>
							<path style="fill:#263238;" d="M538.406,167.216c-0.138,0.261-1.01,0.06-2.052,0.013c-1.042-0.067-1.93,0.038-2.039-0.237
								c-0.119-0.254,0.798-0.877,2.096-0.803C537.708,166.257,538.552,166.977,538.406,167.216z"/>
						</g>
					</g>
					<path style="fill:#455A64;" d="M538.61,150.346c-0.997-1.365-2.763-1.936-4.443-2.123c-5.078-0.567-10.381,1.835-13.304,6.026
						c-1.714,2.458-2.576,5.887-0.975,8.421c1.069,1.692,3.171,2.667,5.153,2.391c1.982-0.276,3.737-1.789,4.303-3.708
						c0.032,2.337,2.238,4.418,4.574,4.313c2.335-0.105,4.346-2.375,4.168-4.706c0.617,1.527,1.385,3.108,2.781,3.982
						c1.396,0.874,3.582,0.664,4.302-0.818c0.877,1.042,2.112,2.104,3.434,1.78c1.127-0.275,1.801-1.521,1.788-2.681
						c-0.014-1.16-0.558-2.242-1.136-3.247c-2.565-4.461-6.346-8.561-11.311-9.914"/>
					<path style="fill:#455A64;" d="M544.574,160.932c2.356,4.079,2.398,9.398,0.105,13.513c-0.726,1.302-1.671,2.503-2.129,3.922
						c-0.458,1.419-0.284,3.196,0.911,4.088c0.732,0.546,1.85,0.821,2.023,1.718c0.086,0.446-0.113,0.89-0.276,1.314
						c-0.687,1.786-0.77,3.798-0.235,5.635c0.356,1.221,0.413,2.734,3.322,4.034c1.447,0.647,2.23,1.746,5.36,0.941
						c5.481-1.41,3.545-13.653,3.035-19.29c-0.511-5.636-3.136-15.674-6.299-20.367"/>
				</g>
				<path style="fill:#D89377;" d="M532.07,199.34c0,0-5.679,21.208-2.06,19.107c3.619-2.101,21.193-16.067,21.193-16.067
					l-8.886-6.705L532.07,199.34z"/>
			</g>
		</g>
		<g>
			<path style="fill:#D89377;" d="M478.582,235.869c-0.629-2.075-8.487-6.358-7.299-7.513c1.549-1.505,8.001,4.84,8.585,5.336
				c0.568,0.482,1.299-0.351,0.748-0.769c-0.792-0.602-8.959-7.133-7.452-8.626c0.836-0.828,2.151,0.856,2.151,0.856
				s7.205,6.687,7.894,5.958c0.699-0.74-3.403-4.812-4.88-6.085c-1.46-1.258-1.473-2.479-0.396-2.677
				c0.734-0.135,5.349,3.654,6.781,4.948c1.432,1.293,5.301,4.914,4.802,1.544c-0.008-0.053-0.009-0.103-0.016-0.155
				c-0.581-3.305,0.066-6.044,0.792-6.708c0.709-0.649,1.814-0.04,1.869,0.926c0.02,0.155,0.022,0.317-0.026,0.487
				c-0.02,0.071-0.028,0.17-0.044,0.25c-0.088,0.959,0.062,2.353,0.219,3.43c0.148,1.02,0.462,2.01,0.943,2.922
				c0.556,1.053,1.075,1.941,1.531,2.674c5.256,2.918,20.374,10.62,35.534,11.828c2.737,0.219,14.831-18.873,14.831-18.873
				l17.97,8.502c-1.849,3.145-5.027,9.96-14.324,22.594c-15.169,20.614-62.592-13.739-62.592-13.739v0l-0.445-0.219
				c-3.786-1.95-8.289-4.368-10.48-5.917c-4.078-2.882-3.833-3.26-3.427-3.688C472.941,232.001,479.21,237.945,478.582,235.869z"/>
		</g>
	</g>
</g>
<g id="Character_1">
	<g>
		<g>
			<g>
				<g>
					<g>
						<g>
							<g>
								<path style="fill:#455A64;" d="M205.611,455.672l-0.095-8.205l-15.37,0.08l0.012,12.005l0.953,0.056
									c4.243,0.213,21.587,0.786,24.417-0.089C218.685,458.545,205.611,455.672,205.611,455.672z"/>
							</g>
						</g>
					</g>
					<g>
						<g>
							<g>
								<path style="fill:#263238;" d="M189.939,459.201c0,0.007,0.091,0.016,0.264,0.027c0.228,0.013,0.478,0.027,0.759,0.042
									c0.759,0.029,1.693,0.065,2.794,0.107c2.36,0.074,5.622,0.133,9.224,0.12c3.604-0.014,6.865-0.099,9.225-0.191
									c1.101-0.051,2.034-0.094,2.793-0.129c0.282-0.018,0.531-0.034,0.759-0.048c0.173-0.013,0.264-0.023,0.264-0.029
									c0-0.006-0.092-0.009-0.266-0.008c-0.228,0.004-0.478,0.008-0.76,0.013c-0.759,0.019-1.693,0.042-2.794,0.07
									c-2.359,0.059-5.619,0.122-9.221,0.136c-3.601,0.013-6.861-0.025-9.221-0.065c-1.102-0.019-2.035-0.035-2.795-0.048
									c-0.282-0.003-0.532-0.005-0.76-0.007C190.031,459.191,189.939,459.194,189.939,459.201z"/>
							</g>
						</g>
					</g>
					<g>
						<g>
							<g>
								<path style="fill:#263238;" d="M210.648,459.528c0.057,0.007,0.098-0.661,0.516-1.336c0.406-0.683,0.98-1.026,0.947-1.074
									c-0.011-0.046-0.669,0.246-1.107,0.977C210.558,458.821,210.602,459.539,210.648,459.528z"/>
							</g>
						</g>
					</g>
					<g>
						<g>
							<g>
								<path style="fill:#263238;" d="M206.102,457.248c0.044,0.027,0.259-0.238,0.482-0.592c0.223-0.354,0.368-0.664,0.324-0.691
									c-0.044-0.027-0.259,0.238-0.482,0.592C206.203,456.911,206.058,457.221,206.102,457.248z"/>
							</g>
						</g>
					</g>
					<g>
						<g>
							<g>
								<path style="fill:#263238;" d="M204.854,456.596c0.035,0.038,0.277-0.125,0.54-0.364c0.264-0.239,0.449-0.464,0.415-0.502
									c-0.035-0.038-0.276,0.125-0.54,0.364C205.006,456.333,204.82,456.557,204.854,456.596z"/>
							</g>
						</g>
					</g>
					<g>
						<g>
							<g>
								<path style="fill:#263238;" d="M204.061,455.149c0,0.052,0.359,0.096,0.802,0.099c0.444,0.003,0.803-0.036,0.804-0.088
									c0-0.051-0.359-0.095-0.802-0.098C204.421,455.058,204.061,455.097,204.061,455.149z"/>
							</g>
						</g>
					</g>
					<g>
						<g>
							<g>
								<path style="fill:#263238;" d="M203.786,454.127c-0.017,0.046,0.375,0.221,0.896,0.256c0.521,0.038,0.934-0.079,0.923-0.127
									c-0.009-0.053-0.415-0.021-0.91-0.058C204.2,454.164,203.802,454.076,203.786,454.127z"/>
							</g>
						</g>
					</g>
					<g>
						<g>
							<g>
								<path style="fill:#263238;" d="M206.617,455.905c-0.001,0.021,0.378,0.065,0.988-0.011c0.304-0.038,0.663-0.112,1.05-0.237
									c0.192-0.069,0.393-0.122,0.601-0.251c0.097-0.066,0.206-0.158,0.243-0.308c0.04-0.148-0.04-0.314-0.151-0.394
									c-0.947-0.485-1.889,0.051-2.238,0.54c-0.192,0.25-0.279,0.493-0.319,0.66c-0.039,0.169-0.035,0.266-0.024,0.267
									c0.035,0.013,0.065-0.389,0.446-0.845c0.188-0.223,0.473-0.441,0.841-0.552c0.348-0.105,0.845-0.135,1.178,0.075
									c0.157,0.115,0.097,0.3-0.077,0.405c-0.162,0.106-0.372,0.17-0.554,0.24c-0.373,0.13-0.721,0.216-1.016,0.269
									C206.993,455.872,206.617,455.874,206.617,455.905z"/>
							</g>
						</g>
					</g>
					<g>
						<g>
							<g>
								<path style="fill:#263238;" d="M206.873,455.953c0.014,0.011,0.159-0.242,0.111-0.686c-0.025-0.218-0.106-0.476-0.273-0.72
									c-0.175-0.218-0.401-0.519-0.825-0.5c-0.229,0.03-0.339,0.292-0.302,0.457c0.019,0.173,0.097,0.321,0.17,0.441
									c0.148,0.246,0.315,0.445,0.469,0.595c0.311,0.301,0.556,0.416,0.567,0.397c0.017-0.024-0.198-0.176-0.471-0.488
									c-0.136-0.156-0.284-0.353-0.416-0.591c-0.137-0.208-0.231-0.583,0.016-0.629c0.247-0.025,0.501,0.22,0.652,0.416
									c0.156,0.213,0.243,0.443,0.282,0.641C206.931,455.689,206.84,455.945,206.873,455.953z"/>
							</g>
						</g>
					</g>
					<g>
						<g>
							<g>
								<path style="fill:#263238;" d="M190.233,454.994c0.004,0.035,0.44-0.044,1.135,0.035c0.688,0.073,1.647,0.351,2.482,1.01
									c0.835,0.66,1.327,1.528,1.558,2.181c0.238,0.658,0.262,1.1,0.297,1.096c0.011-0.001,0.016-0.111-0.001-0.31
									c-0.017-0.199-0.066-0.486-0.171-0.828c-0.205-0.681-0.697-1.596-1.568-2.285c-0.871-0.687-1.876-0.954-2.585-0.995
									c-0.358-0.023-0.648-0.004-0.845,0.026C190.338,454.952,190.231,454.983,190.233,454.994z"/>
							</g>
						</g>
					</g>
					<g>
						<g>
							<g>
								<path style="fill:#263238;" d="M191.797,448.59c-0.051,0-0.105,1.413-0.119,3.158c-0.014,1.745,0.016,3.159,0.068,3.159
									c0.051,0,0.105-1.413,0.119-3.158C191.878,450.005,191.848,448.591,191.797,448.59z"/>
							</g>
						</g>
					</g>
					<g>
						<g>
							<g>
								<path style="fill:#263238;" d="M197.657,457.896c-0.006,0.048,0.996,0.208,2.245,0.212c1.249,0.008,2.253-0.142,2.247-0.19
									c-0.005-0.054-1.008,0.012-2.246,0.004C198.665,457.917,197.663,457.842,197.657,457.896z"/>
							</g>
						</g>
					</g>
					<g>
						<g>
							<g>
								<path style="fill:#263238;" d="M194.644,457.905c-0.037,0.038,0.083,0.212,0.187,0.442c0.107,0.229,0.16,0.434,0.214,0.43
									c0.05-0.001,0.078-0.243-0.044-0.508C194.88,458.004,194.677,457.867,194.644,457.905z"/>
							</g>
						</g>
					</g>
					<g>
						<g>
							<g>
								<path style="fill:#263238;" d="M193.503,456.497c-0.036,0.036,0.064,0.196,0.223,0.356c0.16,0.161,0.319,0.261,0.355,0.225
									c0.036-0.036-0.063-0.196-0.223-0.356C193.698,456.562,193.539,456.461,193.503,456.497z"/>
							</g>
						</g>
					</g>
					<g>
						<g>
							<g>
								<path style="fill:#263238;" d="M191.875,455.859c0.011,0.052,0.215,0.049,0.441,0.128c0.228,0.073,0.389,0.198,0.43,0.163
									c0.041-0.028-0.089-0.247-0.371-0.339C192.095,455.716,191.859,455.812,191.875,455.859z"/>
							</g>
						</g>
					</g>
					<g>
						<g>
							<g>
								<path style="fill:#263238;" d="M190.717,455.56c-0.018,0.048,0.07,0.127,0.198,0.175c0.128,0.049,0.246,0.049,0.265,0.001
									s-0.07-0.126-0.198-0.175C190.854,455.513,190.736,455.512,190.717,455.56z"/>
							</g>
						</g>
					</g>
				</g>
			</g>
			<g>
				<g>
					<g>
						<g>
							<g>
								<path style="fill:#455A64;" d="M116.114,443.836l4.342-6.963l-12.99-8.216l-6.46,10.119l0.773,0.561
									c3.459,2.466,17.76,12.296,20.615,13.085C125.579,453.303,116.114,443.836,116.114,443.836z"/>
							</g>
						</g>
					</g>
					<g>
						<g>
							<g>
								<path style="fill:#263238;" d="M101.012,438.362c-0.004,0.005,0.068,0.062,0.208,0.166c0.185,0.134,0.388,0.28,0.617,0.445
									c0.624,0.434,1.391,0.967,2.296,1.596c1.948,1.334,4.664,3.142,7.705,5.072c3.043,1.93,5.836,3.617,7.873,4.811
									c0.955,0.551,1.764,1.017,2.422,1.397c0.247,0.137,0.465,0.258,0.665,0.368c0.153,0.082,0.235,0.123,0.238,0.118
									c0.003-0.006-0.072-0.057-0.219-0.15c-0.195-0.12-0.407-0.251-0.647-0.399c-0.65-0.393-1.449-0.877-2.391-1.447
									c-2.019-1.222-4.799-2.926-7.841-4.855c-3.04-1.929-5.766-3.718-7.732-5.024c-0.918-0.61-1.696-1.126-2.328-1.547
									c-0.236-0.154-0.445-0.291-0.636-0.416C101.094,438.404,101.015,438.357,101.012,438.362z"/>
							</g>
						</g>
					</g>
					<g>
						<g>
							<g>
								<path style="fill:#263238;" d="M118.279,449.799c0.044,0.036,0.438-0.504,1.154-0.847c0.71-0.356,1.378-0.337,1.377-0.394
									c0.015-0.045-0.696-0.153-1.459,0.227C118.585,449.155,118.234,449.784,118.279,449.799z"/>
							</g>
						</g>
					</g>
					<g>
						<g>
							<g>
								<path style="fill:#263238;" d="M115.679,445.429c0.022,0.046,0.346-0.061,0.725-0.239c0.379-0.178,0.667-0.361,0.645-0.407
									c-0.022-0.047-0.346,0.06-0.725,0.239C115.946,445.2,115.657,445.382,115.679,445.429z"/>
							</g>
						</g>
					</g>
					<g>
						<g>
							<g>
								<path style="fill:#263238;" d="M114.979,444.207c0.009,0.051,0.3,0.044,0.651-0.016c0.351-0.059,0.629-0.148,0.62-0.199
									c-0.009-0.051-0.3-0.044-0.651,0.016C115.249,444.067,114.971,444.156,114.979,444.207z"/>
							</g>
						</g>
					</g>
					<g>
						<g>
							<g>
								<path style="fill:#263238;" d="M115.091,442.56c-0.028,0.043,0.251,0.274,0.623,0.516c0.372,0.241,0.696,0.402,0.724,0.359
									c0.028-0.043-0.251-0.274-0.623-0.515C115.443,442.678,115.119,442.517,115.091,442.56z"/>
							</g>
						</g>
					</g>
					<g>
						<g>
							<g>
								<path style="fill:#263238;" d="M115.41,441.551c-0.039,0.03,0.197,0.388,0.617,0.699c0.419,0.313,0.829,0.436,0.847,0.39
									c0.021-0.049-0.338-0.242-0.735-0.54C115.739,441.806,115.452,441.517,115.41,441.551z"/>
							</g>
						</g>
					</g>
					<g>
						<g>
							<g>
								<path style="fill:#263238;" d="M116.837,444.575c-0.012,0.017,0.283,0.259,0.838,0.523c0.276,0.132,0.619,0.263,1.012,0.367
									c0.199,0.045,0.397,0.109,0.641,0.112c0.118-0.003,0.258-0.022,0.371-0.128c0.114-0.103,0.136-0.286,0.085-0.414
									c-0.536-0.918-1.619-0.976-2.176-0.751c-0.296,0.107-0.501,0.265-0.625,0.384c-0.124,0.122-0.173,0.205-0.164,0.212
									c0.023,0.029,0.264-0.293,0.831-0.471c0.279-0.087,0.636-0.116,1.006-0.012c0.35,0.099,0.784,0.341,0.952,0.698
									c0.07,0.182-0.08,0.305-0.283,0.3c-0.193,0.002-0.405-0.057-0.596-0.097c-0.385-0.091-0.723-0.207-1.001-0.321
									C117.172,444.75,116.853,444.549,116.837,444.575z"/>
							</g>
						</g>
					</g>
					<g>
						<g>
							<g>
								<path style="fill:#263238;" d="M117.027,444.753c0.006,0.017,0.264-0.118,0.463-0.518c0.096-0.197,0.167-0.458,0.158-0.754
									c-0.03-0.278-0.058-0.654-0.425-0.865c-0.209-0.098-0.443,0.063-0.501,0.222c-0.077,0.156-0.091,0.323-0.094,0.463
									c-0.008,0.287,0.025,0.544,0.074,0.754c0.1,0.421,0.244,0.65,0.264,0.64c0.027-0.011-0.072-0.255-0.134-0.665
									c-0.031-0.204-0.049-0.451-0.032-0.722c-0.003-0.249,0.119-0.615,0.353-0.521c0.222,0.112,0.303,0.455,0.325,0.702
									c0.017,0.264-0.034,0.504-0.107,0.692C117.218,444.562,117.003,444.729,117.027,444.753z"/>
							</g>
						</g>
					</g>
					<g>
						<g>
							<g>
								<path style="fill:#263238;" d="M103.527,434.977c-0.016,0.031,0.394,0.2,0.937,0.641c0.54,0.433,1.198,1.183,1.547,2.188
									c0.347,1.006,0.295,2.002,0.137,2.677c-0.154,0.682-0.372,1.068-0.34,1.083c0.01,0.005,0.074-0.085,0.166-0.262
									c0.093-0.177,0.206-0.444,0.302-0.79c0.195-0.684,0.273-1.721-0.089-2.769c-0.364-1.048-1.066-1.814-1.642-2.231
									c-0.289-0.212-0.544-0.353-0.726-0.434C103.637,434.999,103.532,434.967,103.527,434.977z"/>
							</g>
						</g>
					</g>
					<g>
						<g>
							<g>
								<path style="fill:#263238;" d="M108.295,430.426c-0.043-0.028-0.85,1.134-1.802,2.596c-0.952,1.462-1.689,2.67-1.646,2.698
									c0.043,0.028,0.85-1.134,1.802-2.596C107.601,431.662,108.338,430.454,108.295,430.426z"/>
							</g>
						</g>
					</g>
					<g>
						<g>
							<g>
								<path style="fill:#263238;" d="M108.216,441.422c-0.031,0.037,0.727,0.712,1.776,1.389c1.048,0.68,1.974,1.095,1.995,1.051
									c0.025-0.048-0.856-0.534-1.894-1.207C109.054,441.984,108.25,441.38,108.216,441.422z"/>
							</g>
						</g>
					</g>
					<g>
						<g>
							<g>
								<path style="fill:#263238;" d="M105.674,439.807c-0.052,0.012-0.044,0.224-0.081,0.473c-0.033,0.25-0.098,0.452-0.052,0.477
									c0.042,0.026,0.197-0.163,0.236-0.451C105.818,440.017,105.722,439.793,105.674,439.807z"/>
							</g>
						</g>
					</g>
					<g>
						<g>
							<g>
								<path style="fill:#263238;" d="M105.471,438.006c-0.05,0.011-0.052,0.199-0.004,0.42c0.048,0.221,0.128,0.392,0.178,0.381
									c0.05-0.011,0.052-0.199,0.004-0.421C105.601,438.165,105.521,437.995,105.471,438.006z"/>
							</g>
						</g>
					</g>
					<g>
						<g>
							<g>
								<path style="fill:#263238;" d="M104.444,436.591c-0.019,0.05,0.155,0.158,0.303,0.345c0.153,0.184,0.221,0.377,0.274,0.369
									c0.05-0.002,0.058-0.256-0.129-0.486C104.706,436.589,104.456,436.543,104.444,436.591z"/>
							</g>
						</g>
					</g>
					<g>
						<g>
							<g>
								<path style="fill:#263238;" d="M103.63,435.715c-0.041,0.031-0.009,0.145,0.072,0.255c0.081,0.11,0.181,0.174,0.222,0.144
									c0.041-0.03,0.009-0.144-0.072-0.254C103.771,435.749,103.671,435.685,103.63,435.715z"/>
							</g>
						</g>
					</g>
				</g>
			</g>
			<g>
				<g>
					<g>
						<g>
							<g>
								<path style="fill:#E8505B;" d="M175.647,284.692c0,0,13.042,86.645,11.144,90.832c-1.897,4.188-62.784,71.147-62.784,71.147
									l-22.439-14.868c0,0,53.183-66.96,52.782-68.568c-0.402-1.608-20.155-85.512-20.155-85.512L175.647,284.692z"/>
							</g>
						</g>
					</g>
					<g>
						<g>
							<g>
								<path style="fill:#E8505B;" d="M126.793,276.536l-0.788,3.216c-2.322,9.473-0.897,19.476,3.977,27.924l35.363,61.297
									c2.505,4.342,4.332,9.041,5.419,13.934l15.964,70.802h24.632c0,1.475-6.372-58.324-9.565-78.184
									c-2.409-14.978-22.453-61.474-32.163-83.43l6.016-7.402l-10.451-1.744L126.793,276.536z"/>
							</g>
						</g>
					</g>
				</g>
				<g>
					<path style="fill:#263238;" d="M170.395,291.926c0.033-0.015,0.225,0.333,0.545,0.975c0.321,0.641,0.763,1.579,1.292,2.746
						c1.059,2.333,2.45,5.59,3.867,9.234c1.417,3.646,2.592,6.987,3.387,9.423c0.398,1.218,0.706,2.208,0.903,2.897
						c0.198,0.689,0.291,1.075,0.257,1.086c-0.034,0.011-0.192-0.353-0.449-1.022c-0.289-0.776-0.643-1.725-1.058-2.841
						c-0.884-2.402-2.111-5.716-3.525-9.355c-1.415-3.637-2.749-6.909-3.72-9.277c-0.447-1.104-0.828-2.042-1.139-2.81
						C170.492,292.316,170.363,291.941,170.395,291.926z"/>
				</g>
				<g>
					<path style="fill:#263238;" d="M173.303,394.695c-0.018,0.002-0.072-0.236-0.16-0.69c-0.091-0.506-0.21-1.167-0.357-1.99
						c-0.075-0.438-0.157-0.918-0.246-1.439c-0.117-0.525-0.243-1.09-0.377-1.695c-0.273-1.216-0.551-2.606-0.993-4.112
						c-0.206-0.758-0.421-1.55-0.645-2.374c-0.26-0.816-0.53-1.664-0.809-2.541c-0.526-1.767-1.257-3.598-1.956-5.548
						c-1.519-3.856-3.366-8.026-5.523-12.297c-4.357-8.529-9-15.87-12.428-21.128c-1.708-2.582-3.101-4.688-4.104-6.203
						c-0.46-0.699-0.829-1.26-1.112-1.69c-0.25-0.39-0.374-0.599-0.359-0.61c0.015-0.01,0.167,0.179,0.445,0.55
						c0.303,0.416,0.7,0.959,1.193,1.635c1.029,1.425,2.488,3.508,4.244,6.115c3.509,5.211,8.213,12.538,12.585,21.096
						c2.165,4.286,4.006,8.479,5.507,12.361c0.69,1.964,1.408,3.808,1.919,5.589c0.271,0.884,0.532,1.738,0.784,2.561
						c0.214,0.831,0.419,1.629,0.615,2.393c0.421,1.517,0.676,2.92,0.922,4.145c0.12,0.61,0.232,1.18,0.336,1.709
						c0.073,0.525,0.14,1.009,0.201,1.451c0.108,0.831,0.195,1.498,0.261,2.009C173.301,394.451,173.321,394.693,173.303,394.695z"
						/>
				</g>
			</g>
			<g>
				<path style="fill:#263238;" d="M127.299,443.087c-0.013,0.033-0.378-0.088-1.027-0.337c-0.654-0.239-1.57-0.661-2.675-1.232
					c-2.219-1.134-5.1-3.027-8.133-5.287c-3.034-2.262-5.761-4.316-7.821-5.681c-2.052-1.375-3.391-2.119-3.35-2.196
					c0.017-0.032,0.367,0.124,0.989,0.435c0.626,0.303,1.501,0.802,2.56,1.451c2.124,1.294,4.903,3.314,7.931,5.572
					c3.028,2.256,5.846,4.177,8,5.383C125.918,442.413,127.335,443.001,127.299,443.087z"/>
			</g>
			<g>
				<path style="fill:#263238;" d="M211.302,450.036c-0.002,0.036-0.366,0.055-1.024,0.058c-0.774-0.005-1.702-0.012-2.784-0.02
					c-2.483-0.021-5.662-0.048-9.178-0.077c-3.517,0.022-6.697,0.042-9.18,0.057c-1.082,0.005-2.01,0.01-2.784,0.014
					c-0.658-0.005-1.022-0.025-1.024-0.06c-0.001-0.036,0.36-0.085,1.016-0.142c0.656-0.059,1.606-0.12,2.781-0.179
					c2.35-0.119,5.6-0.213,9.191-0.21c3.59,0.005,6.84,0.106,9.189,0.23c1.175,0.062,2.125,0.126,2.781,0.185
					C210.942,449.95,211.304,450,211.302,450.036z"/>
			</g>
		</g>
		<g>
			<path style="fill:#263238;" d="M143.017,188.091c-2.156,0.21-4.418,0.056-6.334-0.956c-1.915-1.012-3.405-3.019-3.337-5.184
				c0.04-1.268,0.59-2.518,0.38-3.768c-0.21-1.256-1.139-2.251-1.737-3.375c-1.494-2.81-0.654-6.647,1.878-8.576
				c1.31-0.998,2.984-1.521,4.082-2.748c1.3-1.452,1.508-3.552,2.302-5.333c1.144-2.569,3.645-4.485,6.423-4.922
				c1.533-0.241,3.139-0.064,4.608-0.561c1.257-0.425,2.297-1.305,3.408-2.03c3.425-2.239,7.753-3.05,11.756-2.203
				c1.757,0.371,3.493,1.079,4.766,2.345c1.427,1.42,3.272,2.959,3.787,4.904c0.607,2.295-0.136,5.175-0.753,7.468
				c-0.616,2.293-2.458,4.391-4.816,4.668"/>
			<g>
				<g>
					<g>
						<g>
							<g>
								<g>
									<path style="fill:#FFBE9D;" d="M142.512,205.775l18.779,0.267c0.321-2.166,0.958-10.599,0.958-10.599
										s7.869-0.476,8.695-8.22c0.826-7.745,1.158-25.676,1.158-25.676l0,0c-8.613-4.703-19.096-4.376-27.398,0.854l-1.232,0.776
										L142.512,205.775z"/>
								</g>
							</g>
							<g>
								<g>
									<g>
										<path style="fill:#263238;" d="M162.874,182.173c0.001-0.084,0.674-0.156,1.761-0.203
											c0.282-0.004,0.507-0.047,0.542-0.195c0.066-0.164-0.014-0.473-0.125-0.819c-0.208-0.732-0.419-1.473-0.64-2.249
											c-0.876-3.202-1.453-5.832-1.291-5.877c0.163-0.044,1.004,2.514,1.88,5.715c0.205,0.781,0.4,1.526,0.594,2.262
											c0.072,0.333,0.231,0.728,0.043,1.175c-0.099,0.223-0.334,0.37-0.523,0.401c-0.19,0.039-0.348,0.024-0.482,0.017
											C163.545,182.338,162.873,182.257,162.874,182.173z"/>
									</g>
								</g>
							</g>
							<g>
								<g>
									<path style="fill:#EB996E;" d="M162.272,195.332c0,0-4.938-0.063-9.838-3.825c0,0,1.864,5.805,9.667,5.835L162.272,195.332
										z"/>
								</g>
							</g>
						</g>
					</g>
					<g>
						<g>
							<g>
								<path style="fill:#FFBE9D;" d="M143.566,171.328c-0.154-0.064-5.309-0.904-5.017,5.225c0.292,6.129,6.385,3.807,6.387,3.631
									C144.938,180.008,143.566,171.328,143.566,171.328z"/>
							</g>
						</g>
						<g>
							<g>
								<g>
									<path style="fill:#EB996E;" d="M142.956,178.122c-0.028-0.018-0.103,0.08-0.28,0.171c-0.172,0.089-0.472,0.159-0.797,0.054
										c-0.659-0.207-1.253-1.209-1.335-2.312c-0.042-0.557,0.049-1.094,0.226-1.543c0.166-0.457,0.441-0.784,0.764-0.858
										c0.321-0.09,0.561,0.094,0.644,0.263c0.09,0.168,0.057,0.292,0.09,0.301c0.018,0.015,0.127-0.109,0.065-0.36
										c-0.031-0.12-0.11-0.261-0.259-0.372c-0.153-0.113-0.372-0.163-0.598-0.128c-0.471,0.055-0.876,0.51-1.07,1.003
										c-0.22,0.496-0.336,1.1-0.289,1.726c0.098,1.233,0.785,2.358,1.683,2.573c0.437,0.092,0.79-0.055,0.969-0.209
										C142.952,178.271,142.977,178.133,142.956,178.122z"/>
								</g>
							</g>
						</g>
					</g>
				</g>
				<g>
					<path style="fill:#263238;" d="M155.907,171.178c-0.084-0.109,0.062-0.4,0.459-0.705c0.392-0.304,1.048-0.588,1.812-0.641
						c0.765-0.052,1.454,0.14,1.883,0.387c0.435,0.247,0.619,0.516,0.551,0.635c-0.154,0.253-1.148-0.085-2.363,0.017
						C157.032,170.936,156.094,171.408,155.907,171.178z"/>
				</g>
				<g>
					<path style="fill:#263238;" d="M166.777,171.245c-0.054-0.279,0.786-0.67,1.887-0.665c1.102,0.001,1.939,0.397,1.884,0.676
						c-0.054,0.286-0.893,0.365-1.887,0.366C167.668,171.615,166.829,171.531,166.777,171.245z"/>
				</g>
			</g>
			<path style="fill:#263238;" d="M141.625,165.056c0.291,1.884,0.582,3.768,0.873,5.652c0.137,0.887,0.298,1.827,0.897,2.495
				c0.989,1.104,2.816,1.008,4.097,0.262c1.87-1.089,2.899-3.175,3.687-5.191c0.788-2.016,1.49-4.158,3.012-5.696
				c2.114,2.313,5.811,2.994,8.611,1.586c1.249-0.628,2.29-1.602,3.489-2.322c1.199-0.72,2.699-1.176,3.991-0.64
				c0.709,0.294,1.346,0.876,2.112,0.842c0.582-0.026,1.104-0.431,1.376-0.946c0.271-0.516,0.32-1.124,0.252-1.703
				c-0.254-2.168-2.029-3.885-3.989-4.846c-2.795-1.372-6.011-1.558-9.125-1.566c-2.956-0.008-5.939,0.125-8.8,0.871
				c-2.86,0.746-5.613,2.145-7.581,4.35c-1.968,2.206-3.066,5.279-2.512,8.183"/>
			<path style="fill:#263238;" d="M166.069,158.86c0.389,1.967,1.443,3.796,2.95,5.12c0.729,0.641,1.625,1.184,2.595,1.163
				c1.575-0.034,2.791-1.637,2.829-3.212c0.038-1.575-0.835-3.043-1.917-4.188c-1.038-1.097-2.392-2.023-3.902-2.059
				c-1.51-0.037-3.1,1.106-3.119,2.616"/>
			<g>
				<g>
					<path style="fill:#263238;" d="M157.037,174.078c-0.008,0.519,0.425,0.954,0.967,0.972c0.541,0.018,0.987-0.387,0.995-0.906
						c0.008-0.519-0.425-0.955-0.966-0.973C157.491,173.153,157.045,173.559,157.037,174.078z"/>
				</g>
				<g>
					<g>
						<path style="fill:#263238;" d="M155.422,173.01c0.124,0.126,0.858-0.44,1.915-0.459c1.056-0.034,1.843,0.494,1.955,0.363
							c0.055-0.058-0.074-0.287-0.416-0.526c-0.337-0.238-0.909-0.465-1.568-0.449c-0.658,0.017-1.208,0.271-1.521,0.525
							C155.466,172.72,155.361,172.954,155.422,173.01z"/>
					</g>
				</g>
			</g>
			<g>
				<g>
					<path style="fill:#263238;" d="M167.863,174.046c-0.008,0.519,0.425,0.954,0.967,0.972c0.541,0.018,0.987-0.387,0.995-0.906
						c0.008-0.519-0.425-0.954-0.966-0.973C168.317,173.121,167.871,173.527,167.863,174.046z"/>
				</g>
				<g>
					<g>
						<path style="fill:#263238;" d="M166.46,173.171c0.124,0.126,0.858-0.44,1.915-0.459c1.056-0.034,1.843,0.495,1.955,0.363
							c0.055-0.058-0.073-0.287-0.417-0.526c-0.337-0.238-0.909-0.465-1.568-0.449c-0.659,0.017-1.208,0.271-1.521,0.525
							C166.505,172.881,166.399,173.115,166.46,173.171z"/>
					</g>
				</g>
			</g>
			<g>
				<path style="fill:#263238;" d="M162.62,185.315c0.01,0.064-0.263,0.186-0.736,0.157c-0.464-0.025-1.13-0.244-1.645-0.782
					c-0.514-0.54-0.703-1.215-0.707-1.679c-0.008-0.473,0.127-0.741,0.19-0.728c0.143,0.001,0.033,1.147,0.893,2.048
					C161.475,185.23,162.625,185.172,162.62,185.315z"/>
			</g>
		</g>
		<g>
			<g>
				<path style="fill:#EB996E;" d="M166.161,225.371l15.606-5.219c0,0,10.868,25.703,13.665,25.958
					c15.493,1.413,32.07-3.724,37.883-5.755c0.59-0.662,1.264-1.458,2.014-2.432c0.643-0.836,1.131-1.78,1.458-2.784
					c0.396-1.215,0.856-2.853,0.829-3.828c-0.033-1.206,1.418-1.824,2.089-0.957c0.671,0.867,0.842,4.187-0.687,7.759
					c-1.529,3.571,3.883,0.73,5.875-0.27c1.991-1,8.297-3.805,9.089-3.436c1.162,0.541,0.797,1.885-1.215,2.837
					c-2.036,0.964-7.843,4.233-7.264,5.26c0.569,1.011,10.637-4.218,10.637-4.218s1.971-1.466,2.679-0.303
					c1.278,2.099-9.834,6.869-10.903,7.297c-0.742,0.297-0.153,1.435,0.627,1.073c0.803-0.373,9.92-5.45,11.241-3.325
					c1.013,1.63-9.104,4.009-10.41,6.112c-1.306,2.104,7.489-2.584,8.393-0.987c0.337,0.595,0.506,1.084-4.934,3.047
					c-2.639,0.953-7.617,2.126-12.123,3.095l0.02,0.056c0,0-55.986,25.054-66.055,0.875
					C164.419,230.596,166.161,225.371,166.161,225.371z"/>
			</g>
		</g>
		<path style="fill:#EBEBEB;" d="M186.978,228.616c-6.245-14.63-14.433-20.361-18.751-22.475c-1.51-0.74-3.155-1.153-4.835-1.244
			l0,0l-0.519-2.514l-20.704-1.864l-0.507,3.199l-3.038-0.165c0,0-17.849,1.786-17.881,22.46c-0.015,9.67,5.207,19.079,7.05,23.687
			c1.149,9.644-2.988,27.126-2.876,31.391l50.73,3.6l2.147-31.711l-0.475-2.975l16.7-5.114L186.978,228.616z M142.169,203.746
			L142.169,203.746L142.169,203.746L142.169,203.746z"/>
		<g>
			<g>
				<path style="fill:#263238;" d="M299.319,158.66c-9.887-12.252-23.952-19.921-39.606-21.594
					c-32.315-3.454-61.416,20.028-64.871,52.343v0c-2.12,19.831,5.915,38.439,19.898,50.664l-51.594,60.545l7.404,6.31
					l52.028-61.056c7.252,4.475,15.583,7.442,24.606,8.406c2.133,0.228,4.259,0.341,6.376,0.341c13.408,0,26.317-4.539,36.9-13.078
					c12.252-9.886,19.921-23.952,21.594-39.606C313.728,186.281,309.205,170.912,299.319,158.66z M302.382,200.902
					c-1.397,13.071-7.8,24.816-18.031,33.07c-10.23,8.255-23.059,12.035-36.133,10.635c-26.983-2.883-46.588-27.182-43.704-54.164
					c2.884-26.982,27.173-46.587,54.165-43.704c13.07,1.397,24.815,7.8,33.07,18.031
					C300.003,174.999,303.779,187.831,302.382,200.902z"/>
				<path style="fill:#455A64;" d="M295.165,154.507c-9.887-12.252-23.952-19.922-39.606-21.594
					c-32.315-3.454-61.416,20.028-64.871,52.342v0c-2.12,19.831,5.915,38.439,19.898,50.664l-52.217,61.042l7.914,6.331
					l52.141-61.574c7.251,4.475,15.583,7.442,24.606,8.407c2.133,0.228,4.26,0.341,6.376,0.341c13.408,0,26.317-4.539,36.9-13.078
					c12.252-9.886,19.921-23.952,21.594-39.606C309.575,182.128,305.051,166.759,295.165,154.507z M298.229,196.749
					c-1.397,13.071-7.8,24.815-18.031,33.07c-10.23,8.255-23.059,12.035-36.133,10.634c-26.983-2.883-46.588-27.182-43.704-54.164
					c2.884-26.982,27.173-46.586,54.165-43.704c13.07,1.397,24.815,7.8,33.07,18.031
					C295.849,170.846,299.626,183.678,298.229,196.749z"/>
			</g>
			<g>
				<path style="fill:#263238;" d="M222.548,223.45c-0.014,0.011-0.148-0.138-0.389-0.433c-0.235-0.299-0.604-0.725-1.023-1.315
					c-0.867-1.159-2.037-2.904-3.285-5.177c-2.506-4.515-5.141-11.354-5.811-19.277c-0.677-7.925,0.767-15.111,2.475-19.984
					c0.847-2.451,1.705-4.368,2.364-5.657c0.313-0.652,0.605-1.134,0.786-1.469c0.188-0.331,0.295-0.501,0.31-0.492
					c0.016,0.008-0.059,0.195-0.217,0.54c-0.151,0.349-0.413,0.844-0.697,1.508c-0.6,1.31-1.402,3.238-2.198,5.686
					c-1.607,4.869-2.975,11.985-2.305,19.824c0.663,7.836,3.211,14.62,5.617,19.147c1.197,2.278,2.313,4.043,3.126,5.233
					c0.391,0.606,0.733,1.05,0.941,1.369C222.457,223.268,222.562,223.439,222.548,223.45z"/>
			</g>
			<g>
				<path style="fill:#263238;" d="M225.009,162.927c0.087,0.122-0.513,0.681-1.113,1.468c-0.607,0.782-0.993,1.505-1.133,1.453
					c-0.132-0.042,0.059-0.916,0.72-1.77C224.139,163.22,224.934,162.811,225.009,162.927z"/>
			</g>
		</g>
		<g>
			<g>
				<g>
					<path style="fill:#263238;" d="M173.157,217.567c0.035-0.007,0.162,0.485,0.362,1.381c0.202,0.895,0.465,2.197,0.767,3.809
						c0.605,3.225,1.334,7.701,1.949,12.671c0.613,4.972,0.995,9.491,1.192,12.766c0.1,1.638,0.161,2.964,0.183,3.881
						c0.024,0.917,0.02,1.425-0.016,1.427c-0.036,0.002-0.1-0.502-0.187-1.415c-0.091-1.011-0.208-2.31-0.348-3.866
						c-0.291-3.264-0.73-7.768-1.342-12.73c-0.614-4.96-1.284-9.436-1.795-12.672c-0.243-1.544-0.445-2.831-0.603-3.834
						C173.182,218.078,173.122,217.573,173.157,217.567z"/>
				</g>
			</g>
			<g>
				<g>
					<path style="fill:#FFBE9D;" d="M200.754,266.689c0,0-55.967,25.11-66.035,0.931c-10.257-24.632-8.515-29.857-8.515-29.857
						l15.606-5.219c0,0,10.868,25.703,13.665,25.958c15.493,1.413,32.07-3.724,37.883-5.755c0.59-0.662,1.264-1.458,2.014-2.432
						c0.643-0.836,1.313-2.04,1.972-2.865c1.479-1.852,2.648-2.16,3.294-2.891c1.546-1.748,2.958-0.471,2.286,0.471
						c-0.637,0.892-2.333,1.903-3.862,5.475c-1.529,3.571,3.92,1.817,6.075,1.25c2.383-0.627,6.858-2.366,6.858-2.366
						c0.104,1.049-1.082,3.16-3.095,4.112c-2.036,0.964-3.353,1.395-3.353,1.395s4.137-0.502,4.247,0.44
						c0.11,0.943-1.224,7.917-5.626,9.989L200.754,266.689z"/>
				</g>
			</g>
			<path style="fill:#EBEBEB;" d="M138.173,210.139l10.053,30.373l-22.004,8.697c0,0-11.48-29.827,3.058-37.128L138.173,210.139z"/>
			<g>
				<g>
					<path style="fill:#263238;" d="M149.689,239.329c-0.011,0.01-0.123-0.079-0.298-0.284c-0.175-0.204-0.415-0.526-0.659-0.977
						c-0.505-0.901-0.962-2.302-1.587-3.997c-1.232-3.404-2.901-8.118-4.713-13.334c-0.898-2.607-1.753-5.09-2.536-7.362
						c-0.776-2.26-1.383-4.352-2.538-5.71c-1.116-1.38-2.633-1.817-3.595-1.787c-0.994,0.035-1.467,0.417-1.491,0.358
						c-0.008-0.012,0.1-0.106,0.337-0.238c0.237-0.131,0.623-0.275,1.143-0.322c1.016-0.097,2.653,0.306,3.887,1.751
						c1.26,1.414,1.914,3.559,2.71,5.79c0.795,2.268,1.663,4.747,2.575,7.349c1.812,5.217,3.426,9.95,4.569,13.384
						c0.583,1.715,0.985,3.126,1.42,4.026C149.338,238.884,149.726,239.299,149.689,239.329z"/>
				</g>
				<g>
					<path style="fill:#263238;" d="M149.222,239.896c0.016,0.032-0.281,0.217-0.833,0.523c-0.551,0.307-1.36,0.728-2.37,1.229
						c-2.019,1.003-4.852,2.303-8.043,3.592c-3.193,1.287-6.136,2.316-8.286,2.995c-1.075,0.34-1.95,0.599-2.56,0.76
						c-0.61,0.162-0.951,0.236-0.962,0.202c-0.023-0.072,1.289-0.542,3.403-1.31c2.115-0.767,5.027-1.847,8.209-3.129
						c3.18-1.284,6.027-2.527,8.081-3.442C147.917,240.4,149.188,239.828,149.222,239.896z"/>
				</g>
				<g>
					<path style="fill:#263238;" d="M129.833,248.09c-0.134,0.053-0.641-0.916-1.133-2.163c-0.492-1.248-0.782-2.302-0.649-2.355
						c0.134-0.053,0.641,0.916,1.133,2.164C129.677,246.983,129.967,248.038,129.833,248.09z"/>
				</g>
				<g>
					<path style="fill:#263238;" d="M134.477,246.304c-0.122,0.068-0.731-0.811-1.17-2.042c-0.443-1.23-0.53-2.296-0.393-2.321
						c0.145-0.029,0.454,0.957,0.883,2.145C134.22,245.276,134.607,246.234,134.477,246.304z"/>
				</g>
				<g>
					<path style="fill:#263238;" d="M139.353,244.193c-0.119,0.072-0.779-0.823-1.249-2.097c-0.475-1.273-0.559-2.382-0.422-2.405
						c0.146-0.028,0.452,0.998,0.91,2.223C139.044,243.141,139.481,244.118,139.353,244.193z"/>
				</g>
				<g>
					<path style="fill:#263238;" d="M144.564,242.085c-0.137,0.043-0.584-0.995-0.998-2.317c-0.414-1.323-0.638-2.43-0.501-2.473
						c0.137-0.043,0.584,0.994,0.998,2.317C144.477,240.935,144.701,242.042,144.564,242.085z"/>
				</g>
			</g>
			<g>
				<g>
					<path style="fill:#263238;" d="M194.421,244.559c0.044,0.137-3.75,1.467-8.472,2.971c-4.723,1.504-8.587,2.612-8.63,2.475
						c-0.044-0.137,3.749-1.467,8.472-2.971C190.514,245.531,194.378,244.423,194.421,244.559z"/>
				</g>
				<g>
					<path style="fill:#263238;" d="M181.017,248.09c-0.132,0.057-0.572-0.678-0.983-1.64c-0.41-0.963-0.636-1.788-0.503-1.845
						c0.132-0.056,0.572,0.678,0.983,1.641C180.924,247.208,181.149,248.034,181.017,248.09z"/>
				</g>
				<g>
					<path style="fill:#263238;" d="M185.323,247.117c-0.131,0.053-0.605-0.817-0.924-1.986c-0.322-1.169-0.357-2.159-0.217-2.18
						c0.145-0.023,0.406,0.906,0.719,2.042C185.211,246.131,185.459,247.063,185.323,247.117z"/>
				</g>
				<g>
					<path style="fill:#263238;" d="M189.95,245.636c-0.141,0.029-0.45-0.904-0.691-2.084c-0.241-1.18-0.322-2.159-0.181-2.188
						c0.141-0.029,0.45,0.904,0.691,2.084C190.01,244.628,190.091,245.608,189.95,245.636z"/>
				</g>
			</g>
			<g>
				<path style="fill:#263238;" d="M144.218,203.443c-0.143-0.01-0.221-0.565-0.173-1.239c0.048-0.674,0.203-1.212,0.346-1.202
					c0.143,0.01,0.221,0.565,0.173,1.239C144.516,202.915,144.361,203.453,144.218,203.443z"/>
			</g>
			<g>
				<path style="fill:#263238;" d="M148.778,203.706c-0.144,0.006-0.282-0.536-0.309-1.21c-0.027-0.674,0.067-1.225,0.211-1.231
					c0.144-0.006,0.282,0.536,0.309,1.21C149.016,203.15,148.922,203.701,148.778,203.706z"/>
			</g>
			<g>
				<path style="fill:#263238;" d="M152.303,204.316c-0.144-0.001-0.256-0.568-0.25-1.266c0.006-0.698,0.127-1.263,0.27-1.262
					c0.144,0.001,0.256,0.568,0.25,1.266C152.568,203.752,152.446,204.317,152.303,204.316z"/>
			</g>
			<g>
				<path style="fill:#263238;" d="M157.064,204.839c-0.136,0.037-0.421-0.613-0.445-1.47c-0.028-0.858,0.218-1.523,0.355-1.494
					c0.145,0.027,0.138,0.685,0.165,1.479C157.161,204.147,157.207,204.804,157.064,204.839z"/>
			</g>
			<g>
				<path style="fill:#263238;" d="M160.985,204.84c-0.143,0.017-0.338-0.633-0.436-1.451c-0.098-0.818-0.061-1.496,0.081-1.513
					c0.143-0.017,0.338,0.632,0.436,1.451C161.164,204.145,161.128,204.823,160.985,204.84z"/>
			</g>
		</g>
	</g>
</g>
</svg>
